<?xml version="1.0" encoding="utf-8"?>
<!-- Generator: Adobe Illustrator 24.0.2, SVG Export Plug-In . SVG Version: 6.00 Build 0)  -->
<svg version="1.1" id="Capa_1" xmlns="http://www.w3.org/2000/svg" xmlns:xlink="http://www.w3.org/1999/xlink" x="0px" y="0px"
	 viewBox="0 0 154.3 165" style="enable-background:new 0 0 154.3 165;" xml:space="preserve">
<style type="text/css">
	.st0{fill:#00AF46;}
	.st1{fill:#90BFB3;}
	.st2{fill:#00AF46;}
	.st3{fill:#FFFFFF;stroke:#201813;stroke-miterlimit:10;}
	.st4{fill:#8CB336;}
</style>
<g>
	<path class="st0" d="M54.7,117.2c-3.8-0.3-23.5-2.2-36.4-18.6C5.5,82.3,4.5,58.5,16,38.6c33.8,10,53.8,32.2,51.5,50.5
		c-0.5,3.6-2.2,10.5-10.6,18.1c-2.7-3.1-5.5-6.3-8.3-9.6c-6.7-8.1-12.7-16-18-23.7c0.6,3,1.4,6.2,2.5,9.4
		C38.3,99,47.5,110.1,54.7,117.2z"/>
	<path class="st1" d="M66.9,59.8C67.7,58.9,79.6,45,74.6,28c-4-13.8-17.3-23.7-32.8-24c-0.6,2-8.5,31.4,9,48.1
		c2.6,2.5,6.5,5.5,12.4,7.6c0.4-4.2,0.4-9.3-0.5-15c-2.2-13.8-8.9-23.6-13-28.7c3.4,2.9,8,7.6,11.7,14.5
		C67.9,42.9,67.4,54.7,66.9,59.8z"/>
	
	<path class="st3" d="M142.8,157.1"/>
	<path class="st4" d="M73.1,116.2c1.7,0.4,36.1,7.7,60-22.5c24.3-30.7,14.2-70.1,13.7-71.8C141.9,24,43.7,32,76.3,100.6
		c8.4-4.7,28.7-17.7,39.6-36.3c-5,12.3-10.7,19.8-14.6,24.2c-1.8,2-5.2,5.5-8.9,8.9c-4.6,4.4-6.9,6-11.1,10.1
		C77.6,111.1,74.8,114.2,73.1,116.2z"/>
	
</g>
</svg>
