<?xml version="1.0" encoding="utf-8"?>
<!-- Generator: Adobe Illustrator 24.0.2, SVG Export Plug-In . SVG Version: 6.00 Build 0)  -->
<svg version="1.1" id="Capa_1" xmlns="http://www.w3.org/2000/svg" xmlns:xlink="http://www.w3.org/1999/xlink" x="0px" y="0px"
	 viewBox="0 0 154.3 165" style="enable-background:new 0 0 154.3 165;" xml:space="preserve">
<style type="text/css">
	.st0{fill:#2D529A;}
	.st1{fill:#90BFB3;}
	.st2{fill:#070508;}
	.st3{fill:#FFFFFF;stroke:#201813;stroke-miterlimit:10;}
	.st4{fill:#8CB336;}
</style>
<g>
	<path class="st0" d="M54.7,117.2c-3.8-0.3-23.5-2.2-36.4-18.6C5.5,82.3,4.5,58.5,16,38.6c33.8,10,53.8,32.2,51.5,50.5
		c-0.5,3.6-2.2,10.5-10.6,18.1c-2.7-3.1-5.5-6.3-8.3-9.6c-6.7-8.1-12.7-16-18-23.7c0.6,3,1.4,6.2,2.5,9.4
		C38.3,99,47.5,110.1,54.7,117.2z"/>
	<path class="st1" d="M66.9,59.8C67.7,58.9,79.6,45,74.6,28c-4-13.8-17.3-23.7-32.8-24c-0.6,2-8.5,31.4,9,48.1
		c2.6,2.5,6.5,5.5,12.4,7.6c0.4-4.2,0.4-9.3-0.5-15c-2.2-13.8-8.9-23.6-13-28.7c3.4,2.9,8,7.6,11.7,14.5
		C67.9,42.9,67.4,54.7,66.9,59.8z"/>
	<g>
		<path class="st2" d="M26.9,140.1c0.9,1.2,2.1,2.3,3.4,3h-5.2c-1.2,0-2.4-0.6-3.1-1.6l-3.7-5.4c-0.6-0.6-1.2-1.3-2.4-1.3
			c-1.7,0-2.6,0.9-2.6,2.6v1.1c0,2.7,0.8,4.1,1.1,4.5l0.1,0.2H7.5l0.1-0.2c0.3-0.4,1.1-1.9,1.1-4.5v-11.7c0-3.3-1.3-4.7-1.3-4.7h14
			c1.8,0,3.5,0.7,4.7,1.9c1.2,1.2,2,2.9,2,4.7c0,3.3-2.5,5.8-5.7,6.2c0.7,0.3,1.2,0.7,1.7,1.3L26.9,140.1L26.9,140.1z M18.3,133.6
			c2.8,0,5.1-2,5.1-4.8c0-2.8-2.3-5.3-5.1-5.3h-4.9l0,10.1H18.3L18.3,133.6z"/>
		<path class="st2" d="M31.1,133.9v-1.3h11.7v1.3H31.1z"/>
		<path class="st2" d="M66.7,138.4C66.7,138.5,66.6,138.5,66.7,138.4c-0.7,1.7-4,5.2-10.9,5.2c-7.1,0-11.5-5-11.5-11.1
			c0-6.1,4.4-11,11.5-11c4.8,0,9.2,2.1,10.7,5.5c0.6,1.3-0.4,2.7-1.8,2.7l-2.7,0c1.1-4.1-3.9-7.7-8.1-6.8c-4.8,1.1-5.9,7.1-5.1,11
			c0.9,3.9,4.1,8.4,9.2,8.4c0,0,0,0,0.1,0c2.3,0,3.3-2.4,3.3-4.3c0-1.8-1.6-3.3-3.3-3.8l-2.3-0.7h10.9L66.7,138.4z"/>
		<path class="st2" d="M79.6,125.4c4.4,0,5.3,2.3,5.3,5.3c0,1.1-0.8,1.9-1.9,1.9h-2.8c0,0,2.3-5.9-0.6-5.9c-3.7,0-4.8,2.3-4.8,6.7
			l0,5c0,1.8,0.4,3,0.7,3.8l0,0.1c0.2,0.4,0.4,0.6,0.5,0.7l0.1,0.1H69l0.1-0.2c0.3-0.4,1.1-1.9,1.1-4.5l0-8c0-1.5-0.3-2.7-0.6-3.5
			c-0.3-0.7-0.5-1.1-0.6-1.1c2.4,1.1,5.6,1.1,8.1,0.1C77.9,125.6,78.7,125.4,79.6,125.4L79.6,125.4z"/>
		<path class="st2" d="M97.9,141.9c4.6,0,7.7-4.3,7.7-4.3c-1.2,3.2-4.9,5.9-9.3,5.9c-5.9,0-9.7-4.1-9.7-9.1s3.7-9,9.7-9
			c4.7,0,8.4,2.5,9.5,6.6c0.5,1.8-0.8,3.4-2.6,3.4H91.6C92.2,138.6,94.2,141.9,97.9,141.9L97.9,141.9z M94.7,126.9
			c-3.1,0.8-3.6,4.2-3.4,7.1h8.9c0.6,0,1.1-0.7,1-1.3C100.6,129.3,98.2,126,94.7,126.9L94.7,126.9z"/>
		<path class="st2" d="M119.1,141.9c4.6,0,7.7-4.3,7.7-4.3c-1.2,3.2-4.9,5.9-9.3,5.9c-5.9,0-9.7-4.1-9.7-9.1s3.7-9,9.7-9
			c4.7,0,8.4,2.5,9.5,6.6c0.5,1.8-0.8,3.4-2.6,3.4h-11.6C113.5,138.6,115.4,141.9,119.1,141.9L119.1,141.9z M115.9,126.9
			c-3.1,0.8-3.6,4.2-3.4,7.1h8.9c0.6,0,1.1-0.7,1-1.3C121.9,129.3,119.4,126,115.9,126.9L115.9,126.9z"/>
		<path class="st2" d="M142.4,143c0.3-0.5,1.1-1.9,1.1-4.5v-5c0-4.4-1.1-6.7-4-6.7c-3.7,0-4.8,2.3-4.8,6.7l0,5c0,1.8,0.4,3,0.7,3.8
			l0,0.1c0.2,0.4,0.4,0.6,0.5,0.8l0.1,0.1h-7.2l0.1-0.1c0.3-0.5,1.1-1.9,1.1-4.5l0-8c0-1.5-0.3-2.7-0.6-3.5
			c-0.3-0.7-0.5-1.1-0.6-1.1c2.4,1.1,5.2,1.1,7.7,0.1c0.7-0.3,2-0.5,3-0.5c6.1,0,8.2,4.1,8.2,9v4c0,1.8,0.4,3,0.7,3.8l0,0.1
			c0.2,0.4,0.4,0.6,0.5,0.7l0.1,0.1L142.4,143L142.4,143L142.4,143z"/>
	</g>
	<path class="st3" d="M142.8,157.1"/>
	<path class="st4" d="M73.1,116.2c1.7,0.4,36.1,7.7,60-22.5c24.3-30.7,14.2-70.1,13.7-71.8C141.9,24,43.7,32,76.3,100.6
		c8.4-4.7,28.7-17.7,39.6-36.3c-5,12.3-10.7,19.8-14.6,24.2c-1.8,2-5.2,5.5-8.9,8.9c-4.6,4.4-6.9,6-11.1,10.1
		C77.6,111.1,74.8,114.2,73.1,116.2z"/>
	<g>
		<path class="st2" d="M15.5,155.3c0.1,0,0.1,0,0.1,0s0.1,0.1,0,0.2c0,0.1-0.1,0.2-0.2,0.3c-0.1,0.1-0.2,0.2-0.3,0.3
			s-0.3,0.1-0.4,0.2c-0.2,0-0.3,0.1-0.5,0.1c-0.2,0-0.3,0-0.5,0c-0.2,0-0.3-0.1-0.4-0.2c-0.1-0.1-0.3-0.2-0.4-0.3
			c-0.1-0.1-0.2-0.3-0.3-0.4c-0.1-0.2-0.1-0.3-0.2-0.5c0-0.2-0.1-0.4-0.1-0.7c0-0.5-0.1-0.9-0.2-1.2c-0.1-0.3-0.2-0.5-0.3-0.6
			c-0.1-0.1-0.2-0.2-0.3-0.3c-0.1,0-0.2-0.1-0.4-0.1c-0.1,0-0.2,0-0.3,0.1c-0.1,0.1-0.1,0.2-0.1,0.3v2.5c0,0.2,0,0.4,0.1,0.5
			c0.1,0.1,0.2,0.2,0.3,0.3s0.2,0.1,0.3,0.1c0.1,0,0.2,0,0.2,0.1c0,0,0.1,0,0.1,0c0,0,0,0,0,0.1c0,0,0,0,0,0.1c0,0-0.1,0-0.1,0h-4
			c0,0-0.1,0-0.1,0c0,0,0,0,0-0.1c0,0,0,0,0-0.1c0,0,0,0,0.1,0c0.1,0,0.1,0,0.2-0.1c0.1,0,0.2-0.1,0.3-0.1s0.2-0.2,0.3-0.3
			c0.1-0.1,0.1-0.3,0.1-0.5v-6.2c0-0.2,0-0.4-0.1-0.5c-0.1-0.1-0.2-0.2-0.3-0.3c-0.1-0.1-0.2-0.1-0.3-0.1c-0.1,0-0.2,0-0.2-0.1
			c0,0-0.1,0-0.1,0s0,0,0-0.1c0,0,0,0,0-0.1c0,0,0.1,0,0.1,0h3.9c0.2,0,0.5,0,0.7,0c0.2,0,0.5,0,0.7,0.1c0.2,0,0.4,0.1,0.6,0.2
			c0.2,0.1,0.4,0.2,0.6,0.4c0.2,0.1,0.3,0.3,0.4,0.5c0.1,0.2,0.2,0.4,0.2,0.6c0,0.2,0,0.4,0,0.6c0,0.2-0.1,0.4-0.2,0.6
			c-0.2,0.3-0.4,0.6-0.6,0.8c-0.2,0.2-0.5,0.3-0.9,0.4c0,0-0.1,0-0.1,0c0,0,0,0,0,0c0,0,0.1,0,0.2,0c0.1,0,0.2,0.1,0.3,0.1
			c0.1,0,0.2,0.1,0.3,0.2c0.1,0.1,0.2,0.2,0.3,0.3c0.1,0.2,0.2,0.4,0.2,0.6c0,0.2,0.1,0.5,0.1,0.8c0,0.3,0,0.5,0.1,0.7
			c0,0.2,0.1,0.3,0.1,0.5c0,0.1,0.1,0.2,0.1,0.2c0.1,0,0.1,0.1,0.2,0.1c0.1,0,0.1,0,0.2,0C15.4,155.4,15.4,155.4,15.5,155.3z
			 M11,151.7c0.1,0,0.2,0,0.4,0c0.1,0,0.3,0,0.4-0.1c0.1,0,0.3-0.1,0.4-0.2c0.1-0.1,0.2-0.2,0.3-0.4c0.1-0.2,0.2-0.4,0.2-0.6
			c0.1-0.2,0.1-0.5,0.1-0.9c0-0.3,0-0.6-0.1-0.8c0-0.2-0.1-0.4-0.2-0.5c-0.1-0.1-0.2-0.2-0.3-0.3c-0.1-0.1-0.3-0.1-0.4-0.1
			c-0.1,0-0.3,0-0.4,0.1c-0.1,0-0.2,0.1-0.3,0.2c-0.1,0.1-0.1,0.2-0.2,0.3c0,0.1-0.1,0.3-0.1,0.5v2.6
			C10.9,151.6,10.9,151.7,11,151.7z"/>
		<path class="st2" d="M18,152.8c-0.1,0-0.1,0-0.1,0.1c0,0.4,0,0.8,0.1,1.1c0.1,0.3,0.2,0.6,0.3,0.8c0.1,0.2,0.3,0.3,0.5,0.4
			c0.2,0.1,0.5,0.1,0.8,0.1c0.2,0,0.4,0,0.6-0.1c0.2,0,0.3-0.1,0.4-0.2c0.1-0.1,0.2-0.1,0.3-0.2c0.1-0.1,0.1-0.1,0.2-0.1
			c0.1,0,0.1,0,0.1,0c0,0,0,0.1,0,0.2c0,0,0,0.1-0.1,0.1c0,0.1-0.1,0.2-0.2,0.3c-0.1,0.1-0.2,0.2-0.3,0.3c-0.1,0.1-0.3,0.2-0.5,0.3
			c-0.2,0.1-0.4,0.2-0.6,0.2c-0.2,0.1-0.5,0.1-0.8,0.1c-0.4,0-0.8-0.1-1.1-0.2c-0.3-0.1-0.6-0.3-0.9-0.6c-0.2-0.3-0.4-0.6-0.6-0.9
			c-0.1-0.4-0.2-0.8-0.2-1.2c0-0.5,0.1-0.9,0.2-1.3s0.4-0.7,0.6-1c0.3-0.3,0.6-0.5,0.9-0.6c0.3-0.1,0.7-0.2,1-0.2
			c0.3,0,0.6,0,0.9,0.1c0.3,0.1,0.5,0.2,0.7,0.4c0.2,0.1,0.3,0.3,0.5,0.5c0.1,0.2,0.2,0.4,0.3,0.5c0.1,0.2,0.1,0.3,0.2,0.5
			c0,0.2,0,0.3,0,0.4c0,0,0,0.1,0,0.1c0,0-0.1,0-0.1,0H18z M17.9,152.4C17.9,152.4,17.9,152.4,17.9,152.4c0.1,0.1,0.1,0.1,0.2,0.1
			c0.1,0,0.2,0,0.3,0c0.1,0,0.2,0,0.3,0c0.1,0,0.2,0,0.3,0c0.1,0,0.2,0,0.3,0c0.1,0,0.1,0,0.1,0c0.1,0,0.1,0,0.2-0.1
			c0.1-0.1,0.1-0.2,0.1-0.3c0-0.1,0-0.3-0.1-0.4c0-0.2-0.1-0.3-0.2-0.5c-0.1-0.1-0.2-0.3-0.3-0.4c-0.1-0.1-0.3-0.1-0.4-0.1
			c-0.1,0-0.2,0-0.3,0.1c-0.1,0.1-0.2,0.2-0.3,0.3c-0.1,0.1-0.1,0.2-0.2,0.4c0,0.1-0.1,0.3-0.1,0.4c0,0.1-0.1,0.2-0.1,0.4
			C17.9,152.2,17.9,152.3,17.9,152.4z"/>
		<path class="st2" d="M28.7,156C28.7,156,28.7,156,28.7,156c0.1,0.1,0.1,0.1,0.1,0.1c0,0,0,0,0,0.1s0,0-0.1,0h-2.3c0,0-0.1,0-0.1,0
			c0,0,0-0.1,0-0.1v-0.4c-0.2,0.2-0.4,0.3-0.7,0.5c-0.3,0.1-0.6,0.2-1.1,0.2c-0.3,0-0.6,0-0.9-0.1c-0.2-0.1-0.4-0.2-0.6-0.3
			c-0.2-0.1-0.3-0.3-0.4-0.4c-0.1-0.2-0.1-0.3-0.2-0.5c0-0.2-0.1-0.4-0.1-0.5c0-0.2,0-0.3,0-0.5v-2.5c0-0.2,0-0.3-0.1-0.4
			s-0.1-0.2-0.2-0.2c-0.1-0.1-0.2-0.1-0.3-0.1c-0.1,0-0.1,0-0.2,0c0,0-0.1,0-0.1,0c0,0,0,0,0-0.1c0,0,0,0,0-0.1c0,0,0,0,0.1,0h2.3
			c0.1,0,0.2,0.1,0.2,0.2v3.7c0,0.2,0,0.3,0,0.5c0,0.2,0.1,0.3,0.2,0.5c0.1,0.1,0.2,0.2,0.3,0.3c0.1,0.1,0.3,0.1,0.5,0.1
			c0.2,0,0.4,0,0.6-0.1c0.1-0.1,0.2-0.2,0.3-0.4c0.1-0.2,0.1-0.3,0.1-0.5c0-0.2,0-0.4,0-0.5v-2.7c0-0.2,0-0.3-0.1-0.4
			c-0.1-0.1-0.1-0.2-0.2-0.2s-0.2-0.1-0.3-0.1c-0.1,0-0.1,0-0.2,0c0,0-0.1,0-0.1,0c0,0,0,0,0-0.1c0,0,0,0,0-0.1c0,0,0,0,0.1,0h2.3
			c0.1,0,0.2,0.1,0.2,0.2v4.6c0,0.2,0,0.3,0.1,0.4c0.1,0.1,0.1,0.2,0.2,0.2c0.1,0.1,0.2,0.1,0.3,0.1C28.6,155.9,28.6,156,28.7,156z"
			/>
		<path class="st2" d="M36.1,156C36.2,156,36.2,156,36.1,156c0.1,0.1,0.1,0.1,0.1,0.1c0,0,0,0,0,0.1c0,0,0,0-0.1,0h-0.7h-0.1h-1.6
			h-0.1h-0.7c0,0-0.1,0-0.1,0c0,0,0,0,0-0.1c0,0,0,0,0-0.1c0,0,0,0,0.1,0c0,0,0.1,0,0.2,0c0.1,0,0.2-0.1,0.3-0.1
			c0.1-0.1,0.2-0.1,0.2-0.2c0.1-0.1,0.1-0.2,0.1-0.4v-2.3v-0.1v-0.4c0-0.2,0-0.4,0-0.5c0-0.2-0.1-0.4-0.1-0.5
			c-0.1-0.2-0.2-0.3-0.3-0.4c-0.1-0.1-0.3-0.1-0.6-0.1c-0.2,0-0.4,0-0.6,0.1c-0.1,0.1-0.2,0.2-0.3,0.4c-0.1,0.1-0.1,0.3-0.1,0.5
			c0,0.2,0,0.3,0,0.4v2.9c0,0.2,0,0.3,0.1,0.4c0.1,0.1,0.1,0.2,0.2,0.2c0.1,0.1,0.2,0.1,0.3,0.1c0.1,0,0.1,0,0.2,0c0,0,0.1,0,0.1,0
			c0,0,0,0,0,0.1c0,0,0,0,0,0.1c0,0,0,0-0.1,0h-3.2c0,0-0.1,0-0.1,0c0,0,0,0,0-0.1c0,0,0,0,0-0.1c0,0,0,0,0.1,0c0,0,0.1,0,0.2,0
			c0.1,0,0.2-0.1,0.3-0.1c0.1-0.1,0.2-0.1,0.2-0.2c0.1-0.1,0.1-0.2,0.1-0.4v-3.5c0-0.1,0-0.1-0.1-0.1c0,0,0,0-0.1,0
			c-0.1,0-0.1,0-0.2,0c-0.1,0-0.1,0-0.2,0c-0.1,0-0.1,0-0.1,0c-0.1,0-0.1,0-0.1-0.1c0,0,0-0.1,0.1-0.1c0.2,0,0.3-0.1,0.5-0.2
			c0.2-0.1,0.4-0.1,0.6-0.2c0.2-0.1,0.4-0.2,0.6-0.3c0.2-0.1,0.3-0.2,0.5-0.3c0,0,0.1,0,0.1,0c0,0,0.1,0,0.1,0.1v0.5
			c0.1-0.1,0.2-0.2,0.3-0.2c0.1-0.1,0.2-0.1,0.4-0.2c0.1-0.1,0.3-0.1,0.5-0.1c0.2,0,0.4-0.1,0.6-0.1c0.3,0,0.6,0,0.9,0.1
			c0.2,0.1,0.4,0.2,0.6,0.3c0.2,0.1,0.3,0.3,0.4,0.4c0.1,0.2,0.1,0.3,0.2,0.5c0,0.2,0.1,0.4,0.1,0.5c0,0.2,0,0.3,0,0.5v0v2.5
			c0,0.2,0,0.3,0.1,0.4c0.1,0.1,0.1,0.2,0.2,0.2c0.1,0.1,0.2,0.1,0.3,0.1C36,155.9,36.1,156,36.1,156z"/>
		<path class="st2" d="M38.9,155.1c0,0.2,0,0.3,0.1,0.4c0.1,0.1,0.1,0.2,0.2,0.2c0.1,0.1,0.2,0.1,0.3,0.1c0.1,0,0.1,0,0.2,0
			c0,0,0.1,0,0.1,0c0,0,0,0,0,0.1c0,0,0,0,0,0.1c0,0,0,0-0.1,0h-3.2c0,0-0.1,0-0.1,0c0,0,0,0,0-0.1c0,0,0,0,0-0.1c0,0,0,0,0.1,0
			c0,0,0.1,0,0.2,0c0.1,0,0.2-0.1,0.3-0.1c0.1-0.1,0.2-0.1,0.2-0.2c0.1-0.1,0.1-0.2,0.1-0.4v-3.5c0-0.1,0-0.1-0.1-0.1c0,0,0,0-0.1,0
			c-0.1,0-0.1,0-0.2,0c-0.1,0-0.1,0-0.2,0c-0.1,0-0.1,0-0.1,0c-0.1,0-0.1,0-0.1-0.1c0,0,0-0.1,0.1-0.1c0.2,0,0.3-0.1,0.5-0.2
			c0.2-0.1,0.4-0.1,0.6-0.2c0.2-0.1,0.4-0.2,0.6-0.3c0.2-0.1,0.3-0.2,0.5-0.3c0,0,0.1,0,0.1,0c0,0,0.1,0,0.1,0.1V155.1z M38.9,148
			c-0.1-0.1-0.1-0.2-0.2-0.3c-0.1-0.1-0.2-0.2-0.3-0.2c-0.1-0.1-0.3-0.1-0.4-0.1c-0.1,0-0.3,0-0.4,0.1c-0.1,0.1-0.2,0.1-0.3,0.2
			c-0.1,0.1-0.2,0.2-0.2,0.3c-0.1,0.1-0.1,0.3-0.1,0.4c0,0.1,0,0.3,0.1,0.4c0.1,0.1,0.1,0.2,0.2,0.3c0.1,0.1,0.2,0.2,0.3,0.2
			c0.1,0.1,0.3,0.1,0.4,0.1c0.2,0,0.3,0,0.4-0.1c0.1-0.1,0.2-0.1,0.3-0.2c0.1-0.1,0.2-0.2,0.2-0.3c0.1-0.1,0.1-0.3,0.1-0.4
			C39,148.2,39,148.1,38.9,148z"/>
		<path class="st2" d="M43.9,150.3c0.2,0,0.3,0,0.5,0.1c0.1,0,0.2,0.1,0.3,0.2c0.1,0.1,0.1,0.2,0.2,0.3c0,0.1,0.1,0.2,0.1,0.3
			c0,0.2-0.1,0.4-0.2,0.5s-0.3,0.2-0.5,0.2c-0.2,0-0.3,0-0.4-0.1c-0.1-0.1-0.2-0.1-0.2-0.2c-0.1-0.1-0.1-0.1-0.2-0.2
			c-0.1-0.1-0.1-0.1-0.2-0.1c-0.1,0-0.1,0-0.2,0.1c-0.1,0-0.2,0.1-0.2,0.3c-0.1,0.1-0.1,0.3-0.2,0.6c0,0.2-0.1,0.5-0.1,0.9v2.2
			c0,0.2,0,0.3,0.1,0.4c0.1,0.1,0.1,0.2,0.2,0.2c0.1,0.1,0.1,0.1,0.2,0.1c0.1,0,0.1,0,0.2,0c0,0,0.1,0,0.1,0c0,0,0,0,0,0.1
			c0,0,0,0,0,0.1c0,0,0,0-0.1,0h-0.6h-0.1h-1.6h-0.1h-0.6c0,0-0.1,0-0.1,0s0,0,0-0.1c0,0,0,0,0-0.1c0,0,0,0,0.1,0c0,0,0.1,0,0.2,0
			c0.1,0,0.1-0.1,0.2-0.1c0.1-0.1,0.1-0.1,0.2-0.2c0.1-0.1,0.1-0.2,0.1-0.4v-3.6c0-0.1,0-0.1-0.1-0.1c0,0,0,0-0.1,0
			c-0.1,0-0.1,0-0.2,0c-0.1,0-0.1,0-0.2,0c-0.1,0-0.1,0-0.1,0c-0.1,0-0.1,0-0.1-0.1c0,0,0-0.1,0.1-0.1c0.2,0,0.3-0.1,0.5-0.2
			c0.2-0.1,0.4-0.1,0.6-0.2c0.2-0.1,0.4-0.2,0.6-0.3c0.2-0.1,0.3-0.2,0.5-0.3c0,0,0.1,0,0.1,0c0,0,0.1,0,0.1,0.1v0.9
			c0.1-0.3,0.3-0.6,0.6-0.7C43.3,150.3,43.6,150.3,43.9,150.3z"/>
		<path class="st2" d="M45.9,156.2c-0.1-0.1-0.1-0.1-0.2-0.2c-0.1-0.1-0.1-0.1-0.1-0.2s-0.1-0.1-0.1-0.2c0-0.1,0-0.2,0-0.3
			c0-0.1,0-0.2,0.1-0.3c0-0.1,0.1-0.2,0.2-0.3c0.1-0.1,0.2-0.1,0.3-0.2c0.1,0,0.2-0.1,0.4-0.1c0.1,0,0.3,0,0.4,0.1
			c0.1,0.1,0.2,0.1,0.3,0.2c0.1,0.1,0.1,0.2,0.2,0.3c0,0.1,0.1,0.2,0.1,0.4c0,0.3,0,0.5-0.1,0.8c-0.1,0.2-0.2,0.4-0.4,0.6
			s-0.3,0.4-0.5,0.5s-0.4,0.3-0.5,0.4c-0.1,0-0.1,0-0.1,0c0,0,0-0.1,0-0.2c0.1-0.1,0.2-0.2,0.2-0.3c0.1-0.1,0.1-0.2,0.2-0.4
			c0-0.1,0-0.2,0-0.4C46,156.4,46,156.3,45.9,156.2z"/>
		<path class="st2" d="M50.6,151.9c0-0.6,0.1-1.2,0.4-1.7c0.2-0.5,0.6-1,1-1.4c0.4-0.4,0.9-0.7,1.5-1c0.6-0.2,1.2-0.4,1.8-0.4
			c0.4,0,0.7,0,1,0.1c0.3,0.1,0.5,0.1,0.7,0.2c0.2,0.1,0.4,0.1,0.5,0.2c0.1,0.1,0.2,0.1,0.2,0.1c0.1,0,0.1,0.1,0.1,0.1v1.5
			c0,0,0,0.1,0,0.1c0,0,0,0-0.1,0c0,0,0,0-0.1,0c0,0,0,0-0.1-0.1c-0.1-0.2-0.2-0.4-0.3-0.6s-0.3-0.4-0.4-0.6
			c-0.2-0.2-0.4-0.3-0.6-0.5c-0.2-0.1-0.5-0.2-0.8-0.2c-0.4,0-0.8,0.1-1.1,0.3c-0.3,0.2-0.5,0.5-0.7,0.9c-0.2,0.4-0.3,0.8-0.4,1.3
			c-0.1,0.5-0.1,1-0.1,1.6c0,0.6,0.1,1.1,0.2,1.5c0.1,0.4,0.3,0.8,0.6,1.1c0.3,0.3,0.6,0.5,1,0.7c0.4,0.2,0.9,0.2,1.4,0.2
			c0.3,0,0.6,0,0.9-0.1c0.3-0.1,0.6-0.2,0.9-0.3c0,0,0.1,0,0.1,0c0,0,0,0,0.1,0c0,0,0,0,0,0.1c0,0,0,0.1,0,0.1
			c-0.4,0.4-0.8,0.6-1.3,0.8c-0.5,0.2-1.1,0.3-1.7,0.3c-0.7,0-1.3-0.1-1.9-0.3c-0.6-0.2-1-0.5-1.4-0.9c-0.4-0.4-0.7-0.9-0.9-1.4
			C50.7,153.1,50.6,152.5,50.6,151.9z"/>
		<path class="st2" d="M61.5,150.3c0.4,0,0.8,0.1,1.2,0.2c0.4,0.2,0.7,0.4,0.9,0.6c0.3,0.3,0.5,0.6,0.6,0.9c0.1,0.4,0.2,0.8,0.2,1.2
			c0,0.4-0.1,0.8-0.2,1.2c-0.2,0.4-0.4,0.7-0.7,1c-0.3,0.3-0.6,0.5-1,0.7c-0.4,0.2-0.8,0.2-1.2,0.2c-0.4,0-0.8-0.1-1.2-0.2
			c-0.4-0.2-0.7-0.4-0.9-0.6c-0.3-0.3-0.5-0.6-0.6-0.9s-0.2-0.8-0.2-1.2c0-0.4,0.1-0.8,0.2-1.2c0.2-0.4,0.4-0.7,0.7-1
			c0.3-0.3,0.6-0.5,1-0.7C60.6,150.3,61,150.3,61.5,150.3z M61.4,156c0.2,0,0.4-0.1,0.5-0.2c0.2-0.1,0.3-0.3,0.4-0.6
			c0.1-0.2,0.2-0.5,0.2-0.9c0.1-0.3,0.1-0.7,0.1-1c0-0.4,0-0.7-0.1-1c-0.1-0.3-0.1-0.6-0.2-0.9c-0.1-0.2-0.2-0.4-0.4-0.6
			c-0.2-0.1-0.3-0.2-0.5-0.2c-0.2,0-0.4,0.1-0.5,0.2c-0.2,0.1-0.3,0.3-0.4,0.6c-0.1,0.2-0.2,0.5-0.2,0.9c0,0.3-0.1,0.7-0.1,1
			c0,0.4,0,0.7,0.1,1c0,0.3,0.1,0.6,0.2,0.9c0.1,0.2,0.2,0.4,0.4,0.6C61,155.9,61.2,156,61.4,156z"/>
		<path class="st2" d="M71.9,156C71.9,156,71.9,156,71.9,156c0.1,0.1,0.1,0.1,0.1,0.1c0,0,0,0,0,0.1c0,0,0,0-0.1,0h-0.7H71h-1.6
			h-0.1h-0.7c0,0-0.1,0-0.1,0c0,0,0,0,0-0.1c0,0,0,0,0-0.1c0,0,0,0,0.1,0c0,0,0.1,0,0.2,0c0.1,0,0.2-0.1,0.3-0.1
			c0.1-0.1,0.2-0.1,0.2-0.2c0.1-0.1,0.1-0.2,0.1-0.4v-2.3v-0.1v-0.4c0-0.2,0-0.4,0-0.5c0-0.2-0.1-0.4-0.1-0.5
			c-0.1-0.2-0.2-0.3-0.3-0.4c-0.1-0.1-0.3-0.1-0.6-0.1c-0.2,0-0.4,0-0.6,0.1c-0.1,0.1-0.2,0.2-0.3,0.4c-0.1,0.1-0.1,0.3-0.1,0.5
			c0,0.2,0,0.3,0,0.4v2.9c0,0.2,0,0.3,0.1,0.4c0.1,0.1,0.1,0.2,0.2,0.2c0.1,0.1,0.2,0.1,0.3,0.1c0.1,0,0.1,0,0.2,0c0,0,0.1,0,0.1,0
			c0,0,0,0,0,0.1c0,0,0,0,0,0.1c0,0,0,0-0.1,0h-3.2c0,0-0.1,0-0.1,0c0,0,0,0,0-0.1c0,0,0,0,0-0.1c0,0,0,0,0.1,0c0,0,0.1,0,0.2,0
			c0.1,0,0.2-0.1,0.3-0.1c0.1-0.1,0.2-0.1,0.2-0.2c0.1-0.1,0.1-0.2,0.1-0.4v-3.5c0-0.1,0-0.1-0.1-0.1c0,0,0,0-0.1,0
			c-0.1,0-0.1,0-0.2,0c-0.1,0-0.1,0-0.2,0c-0.1,0-0.1,0-0.1,0c-0.1,0-0.1,0-0.1-0.1c0,0,0-0.1,0.1-0.1c0.2,0,0.3-0.1,0.5-0.2
			c0.2-0.1,0.4-0.1,0.6-0.2c0.2-0.1,0.4-0.2,0.6-0.3c0.2-0.1,0.3-0.2,0.5-0.3c0,0,0.1,0,0.1,0c0,0,0.1,0,0.1,0.1v0.5
			c0.1-0.1,0.2-0.2,0.3-0.2c0.1-0.1,0.2-0.1,0.4-0.2c0.1-0.1,0.3-0.1,0.5-0.1c0.2,0,0.4-0.1,0.6-0.1c0.3,0,0.6,0,0.9,0.1
			c0.2,0.1,0.4,0.2,0.6,0.3c0.2,0.1,0.3,0.3,0.4,0.4c0.1,0.2,0.1,0.3,0.2,0.5c0,0.2,0.1,0.4,0.1,0.5c0,0.2,0,0.3,0,0.5v0v2.5
			c0,0.2,0,0.3,0.1,0.4c0.1,0.1,0.1,0.2,0.2,0.2c0.1,0.1,0.2,0.1,0.3,0.1C71.8,155.9,71.8,156,71.9,156z"/>
		<path class="st2" d="M74,152.8c-0.1,0-0.1,0-0.1,0.1c0,0.4,0,0.8,0.1,1.1c0.1,0.3,0.2,0.6,0.3,0.8c0.1,0.2,0.3,0.3,0.5,0.4
			c0.2,0.1,0.5,0.1,0.8,0.1c0.2,0,0.4,0,0.6-0.1c0.2,0,0.3-0.1,0.4-0.2s0.2-0.1,0.3-0.2c0.1-0.1,0.1-0.1,0.2-0.1c0.1,0,0.1,0,0.1,0
			c0,0,0,0.1,0,0.2c0,0,0,0.1-0.1,0.1c0,0.1-0.1,0.2-0.2,0.3c-0.1,0.1-0.2,0.2-0.3,0.3c-0.1,0.1-0.3,0.2-0.5,0.3
			c-0.2,0.1-0.4,0.2-0.6,0.2c-0.2,0.1-0.5,0.1-0.8,0.1c-0.4,0-0.8-0.1-1.1-0.2c-0.3-0.1-0.6-0.3-0.9-0.6c-0.2-0.3-0.4-0.6-0.6-0.9
			c-0.1-0.4-0.2-0.8-0.2-1.2c0-0.5,0.1-0.9,0.2-1.3s0.4-0.7,0.6-1c0.3-0.3,0.6-0.5,0.9-0.6c0.3-0.1,0.7-0.2,1-0.2
			c0.3,0,0.6,0,0.9,0.1c0.3,0.1,0.5,0.2,0.7,0.4c0.2,0.1,0.3,0.3,0.5,0.5c0.1,0.2,0.2,0.4,0.3,0.5c0.1,0.2,0.1,0.3,0.2,0.5
			c0,0.2,0,0.3,0,0.4c0,0,0,0.1,0,0.1c0,0-0.1,0-0.1,0H74z M73.9,152.4C73.9,152.4,73.9,152.4,73.9,152.4c0.1,0.1,0.1,0.1,0.2,0.1
			c0.1,0,0.2,0,0.3,0c0.1,0,0.2,0,0.3,0c0.1,0,0.2,0,0.3,0c0.1,0,0.2,0,0.3,0c0.1,0,0.1,0,0.1,0c0.1,0,0.1,0,0.2-0.1
			c0.1-0.1,0.1-0.2,0.1-0.3c0-0.1,0-0.3-0.1-0.4c0-0.2-0.1-0.3-0.2-0.5c-0.1-0.1-0.2-0.3-0.3-0.4c-0.1-0.1-0.3-0.1-0.4-0.1
			c-0.1,0-0.2,0-0.3,0.1c-0.1,0.1-0.2,0.2-0.3,0.3c-0.1,0.1-0.1,0.2-0.2,0.4c0,0.1-0.1,0.3-0.1,0.4c0,0.1-0.1,0.2-0.1,0.4
			C73.9,152.2,73.9,152.3,73.9,152.4z"/>
		<path class="st2" d="M80.8,150.6c-0.2,0-0.3,0.1-0.5,0.2c-0.1,0.1-0.3,0.3-0.4,0.5c-0.1,0.2-0.2,0.5-0.2,0.8
			c-0.1,0.3-0.1,0.6-0.1,1c0,0.4,0,0.7,0.1,1c0.1,0.3,0.2,0.5,0.4,0.7c0.2,0.2,0.3,0.4,0.6,0.5c0.2,0.1,0.4,0.2,0.7,0.2
			c0.2,0,0.5,0,0.7-0.1c0.2-0.1,0.4-0.2,0.5-0.2c0.2-0.1,0.3-0.2,0.4-0.3c0.1-0.1,0.2-0.1,0.2-0.1c0.1,0,0.1,0,0.1,0
			c0,0,0,0.1,0,0.2c0,0-0.1,0.1-0.1,0.2c-0.1,0.1-0.1,0.2-0.2,0.3c-0.1,0.1-0.2,0.2-0.4,0.3c-0.1,0.1-0.3,0.2-0.5,0.3
			c-0.2,0.1-0.4,0.2-0.6,0.2c-0.2,0.1-0.5,0.1-0.8,0.1c-0.4,0-0.8-0.1-1.2-0.2c-0.4-0.1-0.7-0.3-0.9-0.6c-0.2-0.2-0.4-0.5-0.6-0.9
			c-0.1-0.4-0.2-0.8-0.2-1.2c0-0.4,0.1-0.8,0.2-1.1c0.1-0.3,0.2-0.6,0.4-0.8c0.2-0.2,0.4-0.4,0.6-0.6c0.2-0.2,0.4-0.3,0.7-0.4
			c0.2-0.1,0.4-0.2,0.7-0.2c0.2,0,0.4-0.1,0.6-0.1c0.3,0,0.6,0,0.8,0.1c0.2,0.1,0.4,0.1,0.6,0.2c0.2,0.1,0.3,0.2,0.4,0.3
			c0.1,0.1,0.1,0.3,0.1,0.4c0,0.1,0,0.2-0.1,0.3c0,0.1-0.1,0.2-0.2,0.2c-0.1,0.1-0.1,0.1-0.2,0.1c-0.1,0-0.2,0-0.3,0
			c-0.1,0-0.2,0-0.4-0.1c-0.1,0-0.2-0.1-0.3-0.2c-0.1-0.1-0.1-0.2-0.1-0.3c0-0.1-0.1-0.2-0.1-0.4c0-0.1-0.1-0.2-0.2-0.3
			C81,150.7,80.9,150.6,80.8,150.6z"/>
		<path class="st2" d="M87.6,155.2c0.1,0,0.1,0,0.2,0c0,0,0,0.1,0,0.1c-0.1,0.1-0.2,0.3-0.3,0.4s-0.2,0.2-0.4,0.3
			c-0.1,0.1-0.3,0.1-0.5,0.2c-0.2,0-0.4,0.1-0.6,0.1c-0.2,0-0.4,0-0.6-0.1c-0.2-0.1-0.4-0.2-0.6-0.3s-0.3-0.3-0.4-0.6
			c-0.1-0.2-0.2-0.6-0.2-0.9v-3.6c0,0,0-0.1-0.1-0.1h-0.2c-0.1,0-0.2,0-0.2,0c0,0,0,0,0-0.1c0-0.1,0-0.1,0.1-0.2
			c0-0.1,0.1-0.1,0.2-0.1h0.1c0,0,0,0,0-0.1v-1.5c0-0.1,0-0.1,0.1-0.2c0.1,0,0.2,0,0.3-0.1c0.1,0,0.2-0.1,0.4-0.1
			c0.1,0,0.2-0.1,0.4-0.2c0.1-0.1,0.2-0.1,0.3-0.2c0,0,0.1,0,0.1,0c0,0,0.1,0.1,0.1,0.1v2.1c0,0,0,0,0.1,0h1.2c0.1,0,0.2,0,0.2,0
			c0,0,0,0,0,0.1c0,0.1,0,0.1-0.1,0.2c-0.1,0.1-0.1,0.1-0.2,0.1H86c0,0,0,0,0,0v3.9c0,0.1,0,0.2,0.1,0.3c0,0.1,0.1,0.2,0.2,0.2
			c0.1,0.1,0.1,0.1,0.2,0.1c0.1,0,0.2,0,0.3,0c0.2,0,0.4,0,0.5-0.1C87.4,155.3,87.5,155.3,87.6,155.2z"/>
		<path class="st2" d="M93.6,155.6c0.1,0,0.1,0,0.1,0c0,0,0,0.1,0,0.1c0,0-0.1,0.1-0.1,0.2c-0.1,0.1-0.1,0.1-0.2,0.2
			c-0.1,0.1-0.2,0.1-0.3,0.1c-0.1,0-0.3,0.1-0.5,0.1c-0.3,0-0.5-0.1-0.7-0.2s-0.3-0.2-0.4-0.4c0,0,0,0-0.1,0c0,0-0.1,0-0.1,0
			c0,0-0.1,0-0.1,0.1c-0.1,0.1-0.2,0.1-0.3,0.2c-0.1,0.1-0.3,0.1-0.4,0.2c-0.2,0.1-0.4,0.1-0.6,0.1c-0.4,0-0.7-0.1-0.9-0.2
			c-0.3-0.1-0.5-0.2-0.6-0.4c-0.2-0.2-0.3-0.4-0.3-0.6s-0.1-0.4-0.1-0.6c0-0.3,0.1-0.6,0.3-0.9s0.4-0.4,0.7-0.6
			c0.2-0.1,0.3-0.1,0.5-0.1c0.2,0,0.4-0.1,0.5-0.1c0.2,0,0.3-0.1,0.5-0.1c0.2,0,0.3-0.1,0.5-0.2c0.2-0.1,0.3-0.2,0.3-0.4
			c0.1-0.2,0.1-0.3,0.1-0.5c0-0.1,0-0.3-0.1-0.4c0-0.1-0.1-0.2-0.2-0.3c-0.1-0.1-0.1-0.2-0.2-0.2c-0.1-0.1-0.2-0.1-0.3-0.1
			c-0.2,0-0.3,0-0.4,0.1c-0.1,0.1-0.2,0.2-0.2,0.3c0,0.1-0.1,0.3-0.1,0.4c0,0.1-0.1,0.3-0.2,0.4c-0.1,0.1-0.2,0.1-0.3,0.2
			c-0.1,0-0.2,0.1-0.3,0.1c-0.1,0-0.2,0-0.3-0.1c-0.1,0-0.2-0.1-0.2-0.2c-0.1-0.1-0.1-0.1-0.1-0.2c0-0.1,0-0.2,0-0.3
			c0-0.1,0-0.3,0.1-0.4c0.1-0.1,0.2-0.2,0.3-0.4c0.2-0.1,0.4-0.2,0.7-0.3c0.3-0.1,0.6-0.1,1-0.1c0.5,0,0.9,0,1.2,0.1
			c0.3,0.1,0.6,0.2,0.8,0.4c0.2,0.2,0.4,0.4,0.5,0.7c0.1,0.3,0.1,0.6,0.1,0.9c0,0.4,0,0.8,0,1.2c0,0.4,0,0.7-0.1,1
			c0,0.3,0,0.5,0,0.7c0,0.2,0.1,0.3,0.2,0.3c0,0,0.1,0,0.2,0C93.5,155.6,93.5,155.6,93.6,155.6z M91.4,152.7
			C91.4,152.7,91.4,152.7,91.4,152.7C91.3,152.7,91.3,152.7,91.4,152.7c-0.1,0-0.2,0-0.2,0.1c0,0-0.1,0.1-0.1,0.1
			c-0.1,0.1-0.2,0.2-0.2,0.2c-0.1,0.1-0.2,0.1-0.3,0.2c-0.1,0.1-0.2,0.1-0.3,0.2s-0.2,0.1-0.2,0.2c-0.1,0.1-0.2,0.3-0.2,0.4
			c-0.1,0.2-0.1,0.3-0.1,0.5c0,0.1,0,0.2,0.1,0.3c0,0.1,0.1,0.2,0.2,0.3c0.1,0.1,0.2,0.2,0.3,0.2c0.1,0.1,0.2,0.1,0.4,0.1
			c0.2,0,0.3,0,0.4-0.1s0.2-0.1,0.2-0.2c0.1-0.1,0.1-0.2,0.1-0.3c0-0.1,0-0.2,0-0.2V152.7z"/>
		<path class="st2" d="M98.1,150.3c0.2,0,0.3,0,0.5,0.1s0.2,0.1,0.3,0.2c0.1,0.1,0.1,0.2,0.2,0.3c0,0.1,0.1,0.2,0.1,0.3
			c0,0.2-0.1,0.4-0.2,0.5c-0.1,0.1-0.3,0.2-0.5,0.2c-0.2,0-0.3,0-0.4-0.1c-0.1-0.1-0.2-0.1-0.2-0.2c-0.1-0.1-0.1-0.1-0.2-0.2
			c-0.1-0.1-0.1-0.1-0.2-0.1c-0.1,0-0.1,0-0.2,0.1c-0.1,0-0.2,0.1-0.2,0.3c-0.1,0.1-0.1,0.3-0.2,0.6c0,0.2-0.1,0.5-0.1,0.9v2.2
			c0,0.2,0,0.3,0.1,0.4c0.1,0.1,0.1,0.2,0.2,0.2c0.1,0.1,0.1,0.1,0.2,0.1s0.1,0,0.2,0c0,0,0.1,0,0.1,0c0,0,0,0,0,0.1c0,0,0,0,0,0.1
			c0,0,0,0-0.1,0h-0.6h-0.1H95h-0.1h-0.6c0,0-0.1,0-0.1,0c0,0,0,0,0-0.1c0,0,0,0,0-0.1c0,0,0,0,0.1,0c0,0,0.1,0,0.2,0
			s0.1-0.1,0.2-0.1c0.1-0.1,0.1-0.1,0.2-0.2c0.1-0.1,0.1-0.2,0.1-0.4v-3.6c0-0.1,0-0.1-0.1-0.1c0,0,0,0-0.1,0c-0.1,0-0.1,0-0.2,0
			c-0.1,0-0.1,0-0.2,0c-0.1,0-0.1,0-0.1,0c-0.1,0-0.1,0-0.1-0.1c0,0,0-0.1,0.1-0.1c0.2,0,0.3-0.1,0.5-0.2c0.2-0.1,0.4-0.1,0.6-0.2
			c0.2-0.1,0.4-0.2,0.6-0.3c0.2-0.1,0.3-0.2,0.5-0.3c0,0,0.1,0,0.1,0c0,0,0.1,0,0.1,0.1v0.9c0.1-0.3,0.3-0.6,0.6-0.7
			C97.5,150.3,97.8,150.3,98.1,150.3z"/>
		<path class="st2" d="M103.1,157.7l0.8-1.9c-0.1-0.2-0.2-0.4-0.3-0.6c-0.1-0.3-0.2-0.5-0.4-0.8c-0.1-0.3-0.3-0.6-0.4-0.9
			c-0.1-0.3-0.3-0.6-0.4-0.9c-0.1-0.3-0.2-0.5-0.3-0.7c-0.1-0.2-0.1-0.3-0.2-0.4c-0.1-0.1-0.1-0.2-0.2-0.3c-0.1-0.1-0.1-0.2-0.2-0.2
			c-0.1-0.1-0.1-0.1-0.2-0.2s-0.2-0.1-0.3-0.1c0,0-0.1,0-0.1,0c0,0,0,0,0-0.1s0,0,0-0.1c0,0,0,0,0.1,0h3.2c0,0,0.1,0,0.1,0
			c0,0,0,0,0,0.1c0,0,0,0,0,0.1c0,0,0,0-0.1,0c-0.1,0-0.1,0-0.2,0.1c-0.1,0-0.1,0.1-0.2,0.1c-0.1,0.1-0.1,0.1-0.1,0.2
			c0,0.1,0,0.2,0,0.4c0,0.1,0.1,0.2,0.1,0.3c0.1,0.1,0.1,0.3,0.2,0.4c0.1,0.2,0.1,0.3,0.2,0.5c0.1,0.2,0.1,0.3,0.2,0.5
			c0.1,0.1,0.1,0.3,0.2,0.3c0,0.1,0.1,0.1,0.1,0.2c0,0.1,0.1,0.1,0.1,0c0,0,0-0.1,0.1-0.2c0-0.1,0.1-0.2,0.1-0.4
			c0.1-0.1,0.1-0.3,0.2-0.5c0.1-0.2,0.1-0.3,0.2-0.5c0.1-0.2,0.1-0.3,0.1-0.4c0-0.1,0.1-0.2,0.1-0.3c0-0.2,0.1-0.3,0-0.4
			c0-0.1,0-0.2-0.1-0.2c-0.1-0.1-0.1-0.1-0.2-0.1c-0.1,0-0.1,0-0.2-0.1c0,0-0.1,0-0.1,0c0,0,0,0,0-0.1c0,0,0,0,0-0.1c0,0,0,0,0.1,0
			h1.9c0,0,0.1,0,0.1,0c0,0,0,0,0,0.1c0,0,0,0,0,0.1s0,0-0.1,0c-0.1,0-0.2,0.1-0.3,0.1s-0.2,0.1-0.2,0.2s-0.1,0.1-0.2,0.2
			c-0.1,0.1-0.1,0.2-0.2,0.3c0,0.1-0.1,0.2-0.2,0.3c-0.1,0.2-0.2,0.4-0.3,0.7s-0.2,0.5-0.4,0.8s-0.3,0.6-0.4,0.9
			c-0.1,0.3-0.3,0.6-0.4,0.8c-0.1,0.3-0.2,0.5-0.3,0.7l-1.1,2.4c-0.1,0.3-0.3,0.6-0.5,0.8c-0.2,0.2-0.4,0.3-0.7,0.3
			c-0.1,0-0.2,0-0.3,0c-0.1,0-0.2-0.1-0.3-0.1c-0.1-0.1-0.1-0.1-0.2-0.2c0-0.1-0.1-0.2-0.1-0.3c0-0.1,0-0.2,0.1-0.3s0.1-0.2,0.2-0.2
			c0.1-0.1,0.2-0.1,0.3-0.1c0.1,0,0.2,0,0.3,0c0.1,0,0.2,0,0.3,0.1c0.1,0,0.2,0.1,0.3,0.1c0.1,0,0.2,0,0.2,0
			C103,157.9,103,157.8,103.1,157.7z"/>
		<path class="st2" d="M116.4,154.3c0-0.1,0.1-0.1,0.1-0.1c0.1,0,0.1,0,0.1,0.1v1.7c0,0.1,0,0.1-0.1,0.1h-6.7c0,0-0.1,0-0.1,0
			c0,0,0,0,0-0.1c0,0,0,0,0-0.1c0,0,0,0,0.1,0c0.1,0,0.1,0,0.2-0.1c0.1,0,0.2-0.1,0.3-0.1c0.1-0.1,0.2-0.2,0.3-0.3
			c0.1-0.1,0.1-0.3,0.1-0.5v-6.2c0-0.2,0-0.4-0.1-0.5c-0.1-0.1-0.2-0.2-0.3-0.3c-0.1-0.1-0.2-0.1-0.3-0.1c-0.1,0-0.2,0-0.2-0.1
			c0,0-0.1,0-0.1,0c0,0,0,0,0-0.1c0,0,0,0,0-0.1c0,0,0.1,0,0.1,0h6.2c0.1,0,0.1,0,0.1,0.1v1.3c0,0.1,0,0.1-0.1,0.1
			c-0.1,0-0.1,0-0.1-0.1c0-0.1-0.1-0.1-0.2-0.3c-0.1-0.1-0.2-0.2-0.3-0.4s-0.3-0.2-0.5-0.3c-0.2-0.1-0.4-0.1-0.7-0.1
			c-0.2,0-0.4,0-0.5,0.1c-0.2,0-0.3,0.1-0.4,0.2c-0.1,0.1-0.2,0.2-0.3,0.3c-0.1,0.1-0.1,0.3-0.1,0.4v2.7v-0.1c0,0,0,0,0,0.1
			c0,0,0,0,0.1,0h0.8c0.2,0,0.3,0,0.5-0.1c0.1-0.1,0.2-0.2,0.3-0.3c0.1-0.1,0.1-0.2,0.1-0.3c0-0.1,0-0.2,0.1-0.2c0,0,0-0.1,0-0.1
			c0,0,0,0,0.1,0c0,0,0,0,0.1,0c0,0,0,0,0,0.1v2.2c0,0,0,0.1,0,0.1c0,0,0,0-0.1,0c0,0,0,0-0.1,0c0,0,0,0,0-0.1c0-0.1,0-0.1-0.1-0.2
			c0-0.1-0.1-0.2-0.1-0.3c-0.1-0.1-0.2-0.2-0.3-0.3c-0.1-0.1-0.3-0.1-0.5-0.1h-0.8c0,0,0,0-0.1,0c0,0,0,0,0,0.1v-0.1v2.9
			c0,0.3,0.1,0.5,0.4,0.7c0.3,0.2,0.6,0.2,1.1,0.2c0.2,0,0.4,0,0.6-0.1c0.2-0.1,0.4-0.1,0.5-0.2c0.1-0.1,0.3-0.2,0.4-0.3
			c0.1-0.1,0.2-0.2,0.3-0.3c0.1-0.1,0.1-0.2,0.2-0.3C116.3,154.4,116.4,154.3,116.4,154.3z"/>
		<path class="st2" d="M123.8,156C123.9,156,123.9,156,123.8,156c0.1,0.1,0.1,0.1,0.1,0.1c0,0,0,0,0,0.1c0,0,0,0-0.1,0h-2.3
			c0,0-0.1,0-0.1,0c0,0,0-0.1,0-0.1v-0.6c0,0,0,0,0-0.1c0,0,0,0-0.1,0c0,0-0.1,0.1-0.2,0.2c-0.1,0.1-0.2,0.2-0.4,0.3
			c-0.2,0.1-0.3,0.2-0.6,0.3c-0.2,0.1-0.5,0.1-0.8,0.1c-0.3,0-0.6,0-0.9-0.1c-0.3-0.1-0.5-0.2-0.7-0.4c-0.2-0.2-0.3-0.3-0.5-0.5
			c-0.1-0.2-0.2-0.4-0.3-0.6c-0.1-0.2-0.1-0.4-0.1-0.6c0-0.2,0-0.4,0-0.6c0-0.5,0.1-0.9,0.2-1.3c0.1-0.4,0.3-0.7,0.5-1
			c0.2-0.3,0.5-0.5,0.9-0.6c0.4-0.1,0.8-0.2,1.2-0.2c0.3,0,0.5,0,0.7,0c0.2,0,0.4,0.1,0.5,0.1c0.1,0,0.2,0.1,0.3,0.1
			c0.1,0,0.1,0.1,0.1,0.1c0,0,0,0,0.1,0c0,0,0,0,0,0V148c0-0.1,0-0.1-0.1-0.1c0,0,0,0-0.1,0c-0.1,0-0.1,0-0.2,0c-0.1,0-0.1,0-0.2,0
			c-0.1,0-0.1,0-0.1,0c-0.1,0-0.1,0-0.1-0.1c0,0,0-0.1,0.1-0.1c0.2,0,0.3-0.1,0.5-0.2c0.2-0.1,0.4-0.1,0.6-0.2
			c0.2-0.1,0.4-0.2,0.6-0.3c0.2-0.1,0.3-0.2,0.5-0.3c0,0,0.1,0,0.1,0c0,0,0.1,0,0.1,0.1v8.4c0,0.2,0,0.3,0.1,0.4
			c0.1,0.1,0.1,0.2,0.2,0.2c0.1,0.1,0.2,0.1,0.3,0.1C123.7,155.9,123.8,156,123.8,156z M121.4,152.4c0-0.1,0-0.2,0-0.3
			c0-0.1,0-0.3-0.1-0.4s-0.1-0.3-0.1-0.4c-0.1-0.1-0.1-0.2-0.2-0.3c-0.1-0.1-0.2-0.2-0.3-0.2s-0.3-0.1-0.4-0.1
			c-0.2,0-0.5,0.1-0.6,0.2c-0.2,0.1-0.3,0.3-0.4,0.5c-0.1,0.2-0.2,0.5-0.2,0.8c-0.1,0.3-0.1,0.6-0.1,1c0,0.1,0,0.2,0,0.4
			c0,0.2,0,0.3,0,0.5c0,0.2,0.1,0.4,0.1,0.6c0.1,0.2,0.1,0.4,0.2,0.5s0.2,0.3,0.4,0.4c0.2,0.1,0.3,0.1,0.6,0.1
			c0.3,0,0.5-0.1,0.7-0.2c0.2-0.1,0.3-0.2,0.4-0.4c0.1-0.2,0.2-0.3,0.2-0.5c0-0.2,0-0.3,0-0.5V152.4z"/>
		<path class="st2" d="M131,156C131,156,131.1,156,131,156c0.1,0.1,0.1,0.1,0.1,0.1c0,0,0,0,0,0.1s0,0-0.1,0h-2.3c0,0-0.1,0-0.1,0
			c0,0,0-0.1,0-0.1v-0.4c-0.2,0.2-0.4,0.3-0.7,0.5c-0.3,0.1-0.6,0.2-1.1,0.2c-0.3,0-0.6,0-0.9-0.1c-0.2-0.1-0.4-0.2-0.6-0.3
			c-0.2-0.1-0.3-0.3-0.4-0.4c-0.1-0.2-0.1-0.3-0.2-0.5c0-0.2-0.1-0.4-0.1-0.5c0-0.2,0-0.3,0-0.5v-2.5c0-0.2,0-0.3-0.1-0.4
			c-0.1-0.1-0.1-0.2-0.2-0.2c-0.1-0.1-0.2-0.1-0.3-0.1c-0.1,0-0.1,0-0.2,0c0,0-0.1,0-0.1,0c0,0,0,0,0-0.1c0,0,0,0,0-0.1
			c0,0,0,0,0.1,0h2.3c0.1,0,0.2,0.1,0.2,0.2v3.7c0,0.2,0,0.3,0,0.5c0,0.2,0.1,0.3,0.2,0.5c0.1,0.1,0.2,0.2,0.3,0.3
			c0.1,0.1,0.3,0.1,0.5,0.1c0.2,0,0.4,0,0.6-0.1c0.1-0.1,0.2-0.2,0.3-0.4c0.1-0.2,0.1-0.3,0.1-0.5c0-0.2,0-0.4,0-0.5v-2.7
			c0-0.2,0-0.3-0.1-0.4c-0.1-0.1-0.1-0.2-0.2-0.2s-0.2-0.1-0.3-0.1c-0.1,0-0.1,0-0.2,0c0,0-0.1,0-0.1,0c0,0,0,0,0-0.1c0,0,0,0,0-0.1
			c0,0,0,0,0.1,0h2.3c0.1,0,0.2,0.1,0.2,0.2v4.6c0,0.2,0,0.3,0.1,0.4c0.1,0.1,0.1,0.2,0.2,0.2c0.1,0.1,0.2,0.1,0.3,0.1
			C130.9,155.9,131,156,131,156z"/>
		<path class="st2" d="M134.4,150.6c-0.2,0-0.3,0.1-0.5,0.2c-0.1,0.1-0.3,0.3-0.4,0.5c-0.1,0.2-0.2,0.5-0.2,0.8s-0.1,0.6-0.1,1
			c0,0.4,0,0.7,0.1,1c0.1,0.3,0.2,0.5,0.4,0.7c0.2,0.2,0.3,0.4,0.6,0.5c0.2,0.1,0.4,0.2,0.7,0.2c0.2,0,0.5,0,0.7-0.1
			c0.2-0.1,0.4-0.2,0.5-0.2c0.2-0.1,0.3-0.2,0.4-0.3c0.1-0.1,0.2-0.1,0.2-0.1c0.1,0,0.1,0,0.1,0c0,0,0,0.1,0,0.2
			c0,0-0.1,0.1-0.1,0.2c-0.1,0.1-0.1,0.2-0.2,0.3c-0.1,0.1-0.2,0.2-0.4,0.3c-0.1,0.1-0.3,0.2-0.5,0.3c-0.2,0.1-0.4,0.2-0.6,0.2
			c-0.2,0.1-0.5,0.1-0.8,0.1c-0.4,0-0.8-0.1-1.2-0.2c-0.4-0.1-0.7-0.3-0.9-0.6c-0.2-0.2-0.4-0.5-0.6-0.9c-0.1-0.4-0.2-0.8-0.2-1.2
			c0-0.4,0.1-0.8,0.2-1.1c0.1-0.3,0.2-0.6,0.4-0.8c0.2-0.2,0.4-0.4,0.6-0.6c0.2-0.2,0.4-0.3,0.7-0.4c0.2-0.1,0.4-0.2,0.7-0.2
			c0.2,0,0.4-0.1,0.6-0.1c0.3,0,0.6,0,0.8,0.1c0.2,0.1,0.4,0.1,0.6,0.2c0.2,0.1,0.3,0.2,0.4,0.3c0.1,0.1,0.1,0.3,0.1,0.4
			c0,0.1,0,0.2-0.1,0.3s-0.1,0.2-0.2,0.2c-0.1,0.1-0.1,0.1-0.2,0.1c-0.1,0-0.2,0-0.3,0c-0.1,0-0.2,0-0.4-0.1c-0.1,0-0.2-0.1-0.3-0.2
			c-0.1-0.1-0.1-0.2-0.1-0.3c0-0.1-0.1-0.2-0.1-0.4c0-0.1-0.1-0.2-0.2-0.3C134.6,150.7,134.5,150.6,134.4,150.6z"/>
		<path class="st2" d="M142.9,155.6c0.1,0,0.1,0,0.1,0c0,0,0,0.1,0,0.1c0,0-0.1,0.1-0.1,0.2c-0.1,0.1-0.1,0.1-0.2,0.2
			c-0.1,0.1-0.2,0.1-0.3,0.1c-0.1,0-0.3,0.1-0.5,0.1c-0.3,0-0.5-0.1-0.7-0.2c-0.2-0.1-0.3-0.2-0.4-0.4c0,0,0,0-0.1,0
			c0,0-0.1,0-0.1,0c0,0-0.1,0-0.1,0.1c-0.1,0.1-0.2,0.1-0.3,0.2c-0.1,0.1-0.3,0.1-0.4,0.2c-0.2,0.1-0.4,0.1-0.6,0.1
			c-0.4,0-0.7-0.1-0.9-0.2c-0.3-0.1-0.5-0.2-0.6-0.4c-0.2-0.2-0.3-0.4-0.3-0.6c-0.1-0.2-0.1-0.4-0.1-0.6c0-0.3,0.1-0.6,0.3-0.9
			c0.2-0.2,0.4-0.4,0.7-0.6c0.2-0.1,0.3-0.1,0.5-0.1c0.2,0,0.4-0.1,0.5-0.1c0.2,0,0.3-0.1,0.5-0.1c0.2,0,0.3-0.1,0.5-0.2
			c0.2-0.1,0.3-0.2,0.3-0.4c0.1-0.2,0.1-0.3,0.1-0.5c0-0.1,0-0.3-0.1-0.4c0-0.1-0.1-0.2-0.2-0.3c-0.1-0.1-0.1-0.2-0.2-0.2
			c-0.1-0.1-0.2-0.1-0.3-0.1c-0.2,0-0.3,0-0.4,0.1c-0.1,0.1-0.2,0.2-0.2,0.3c0,0.1-0.1,0.3-0.1,0.4c0,0.1-0.1,0.3-0.2,0.4
			c-0.1,0.1-0.2,0.1-0.3,0.2c-0.1,0-0.2,0.1-0.3,0.1c-0.1,0-0.2,0-0.3-0.1s-0.2-0.1-0.2-0.2c-0.1-0.1-0.1-0.1-0.1-0.2
			c0-0.1,0-0.2,0-0.3c0-0.1,0-0.3,0.1-0.4c0.1-0.1,0.2-0.2,0.3-0.4c0.2-0.1,0.4-0.2,0.7-0.3c0.3-0.1,0.6-0.1,1-0.1
			c0.5,0,0.9,0,1.2,0.1c0.3,0.1,0.6,0.2,0.8,0.4c0.2,0.2,0.4,0.4,0.5,0.7c0.1,0.3,0.1,0.6,0.1,0.9c0,0.4,0,0.8,0,1.2
			c0,0.4,0,0.7-0.1,1c0,0.3,0,0.5,0,0.7c0,0.2,0.1,0.3,0.2,0.3c0,0,0.1,0,0.2,0C142.8,155.6,142.8,155.6,142.9,155.6z M140.7,152.7
			C140.7,152.7,140.7,152.7,140.7,152.7C140.6,152.7,140.6,152.7,140.7,152.7c-0.1,0-0.2,0-0.2,0.1c0,0-0.1,0.1-0.1,0.1
			c-0.1,0.1-0.2,0.2-0.2,0.2c-0.1,0.1-0.2,0.1-0.3,0.2c-0.1,0.1-0.2,0.1-0.3,0.2c-0.1,0.1-0.2,0.1-0.2,0.2c-0.1,0.1-0.2,0.3-0.2,0.4
			c-0.1,0.2-0.1,0.3-0.1,0.5c0,0.1,0,0.2,0.1,0.3c0,0.1,0.1,0.2,0.2,0.3c0.1,0.1,0.2,0.2,0.3,0.2c0.1,0.1,0.2,0.1,0.4,0.1
			c0.2,0,0.3,0,0.4-0.1c0.1-0.1,0.2-0.1,0.2-0.2c0.1-0.1,0.1-0.2,0.1-0.3c0-0.1,0-0.2,0-0.2V152.7z"/>
		<path class="st2" d="M147.4,150.3c0.2,0,0.3,0,0.5,0.1s0.2,0.1,0.3,0.2c0.1,0.1,0.1,0.2,0.2,0.3c0,0.1,0.1,0.2,0.1,0.3
			c0,0.2-0.1,0.4-0.2,0.5s-0.3,0.2-0.5,0.2c-0.2,0-0.3,0-0.4-0.1c-0.1-0.1-0.2-0.1-0.2-0.2c-0.1-0.1-0.1-0.1-0.2-0.2
			c-0.1-0.1-0.1-0.1-0.2-0.1c-0.1,0-0.1,0-0.2,0.1c-0.1,0-0.2,0.1-0.2,0.3c-0.1,0.1-0.1,0.3-0.2,0.6c0,0.2-0.1,0.5-0.1,0.9v2.2
			c0,0.2,0,0.3,0.1,0.4c0.1,0.1,0.1,0.2,0.2,0.2c0.1,0.1,0.1,0.1,0.2,0.1s0.1,0,0.2,0c0,0,0.1,0,0.1,0c0,0,0,0,0,0.1c0,0,0,0,0,0.1
			c0,0,0,0-0.1,0h-0.6h-0.1h-1.6h-0.1h-0.6c0,0-0.1,0-0.1,0c0,0,0,0,0-0.1c0,0,0,0,0-0.1c0,0,0,0,0.1,0c0,0,0.1,0,0.2,0
			s0.1-0.1,0.2-0.1c0.1-0.1,0.1-0.1,0.2-0.2c0.1-0.1,0.1-0.2,0.1-0.4v-3.6c0-0.1,0-0.1-0.1-0.1c0,0,0,0-0.1,0c-0.1,0-0.1,0-0.2,0
			c-0.1,0-0.1,0-0.2,0c-0.1,0-0.1,0-0.1,0c-0.1,0-0.1,0-0.1-0.1c0,0,0-0.1,0.1-0.1c0.2,0,0.3-0.1,0.5-0.2c0.2-0.1,0.4-0.1,0.6-0.2
			c0.2-0.1,0.4-0.2,0.6-0.3c0.2-0.1,0.3-0.2,0.5-0.3c0,0,0.1,0,0.1,0c0,0,0.1,0,0.1,0.1v0.9c0.1-0.3,0.3-0.6,0.6-0.7
			C146.8,150.3,147.1,150.3,147.4,150.3z"/>
	</g>
</g>
</svg>
