<?xml version="1.0" encoding="utf-8"?>
<!-- Generator: Adobe Illustrator 24.0.2, SVG Export Plug-In . SVG Version: 6.00 Build 0)  -->
<svg version="1.1" id="Capa_1" xmlns="http://www.w3.org/2000/svg" xmlns:xlink="http://www.w3.org/1999/xlink" x="0px" y="0px"
	 viewBox="0 0 577 110.65" style="enable-background:new 0 0 577 110.65;" xml:space="preserve">
<style type="text/css">
	.st0{fill:#2D529A;}
	.st1{fill:#90BFB3;}
	.st2{fill:#8CB336;}
	.st3{fill:white;}
</style>
<g>
	<g>
		<path class="st0" d="M43.51,101.6c-3.56-0.27-21.86-2.03-33.91-16.88C-2.32,70.03-3.3,48.45,7.38,30.51
			C38.9,39.58,57.54,59.7,55.37,76.23c-0.43,3.27-2.08,9.49-9.87,16.38c-2.56-2.78-5.13-5.67-7.71-8.68
			C31.55,76.63,25.98,69.43,21,62.48c0.57,2.72,1.34,5.58,2.36,8.54C28.25,85.13,36.73,95.18,43.51,101.6z"/>
		<path class="st1" d="M54.86,49.67c0.73-0.8,11.79-13.37,7.13-28.81C58.22,8.4,45.84-0.55,31.41-0.84
			c-0.53,1.8-7.88,28.38,8.36,43.5c2.4,2.24,6.09,4.94,11.55,6.87c0.36-3.76,0.41-8.38-0.45-13.56C48.8,23.46,42.6,14.6,38.78,9.99
			c3.15,2.62,7.45,6.89,10.88,13.13C55.8,34.33,55.35,45.05,54.86,49.67z"/>
		<path class="st2" d="M60.59,100.66c1.61,0.36,33.61,6.92,55.89-20.4c22.62-27.74,13.21-63.43,12.78-64.95
			c-4.54,1.9-96.05,9.2-65.69,71.23c7.8-4.28,26.72-16.02,36.93-32.84c-4.68,11.16-9.93,17.94-13.6,21.89
			c-1.68,1.81-4.81,4.94-8.26,8.09c-4.33,3.95-6.39,5.41-10.36,9.12C64.84,96.04,62.21,98.86,60.59,100.66z"/>
	</g>
	<g>
		<g>
			<path class="st3" d="M207.69,54.8c2.72,3.61,6.26,6.61,10.34,8.72h-15.6c-3.72,0-7.17-1.67-9.34-4.58l-11.16-15.86
				c-1.72-1.76-3.54-3.79-7.17-3.79c-4.99,0-7.71,2.64-7.71,7.49v3.08c0,7.84,2.45,11.98,3.45,13.3l0.36,0.44h-21.86l0.36-0.44
				c1-1.32,3.45-5.46,3.45-13.3V15.51c0-9.6-3.81-13.65-3.81-13.65h42.18c5.53,0,10.52,2.11,14.15,5.64
				c3.63,3.52,5.9,8.37,5.9,13.74c0,9.78-7.53,17-17.23,18.06c1.99,0.79,3.72,2.11,5.08,3.88l8.71,11.54L207.69,54.8z M181.56,35.5
				c8.44,0,15.33-5.99,15.33-14.18c0-8.19-6.89-15.51-15.33-15.51h-14.7l0.09,29.69h14.7H181.56z"/>
			<path class="st3" d="M220.3,36.56v-3.88h35.38v3.88H220.3z"/>
			<path class="st3" d="M327.8,49.78c0,0.09-0.09,0.09-0.09,0.18c-1.9,4.76-11.88,15.07-32.75,15.07c-21.5,0-34.65-14.63-34.74-32.6
				C260.13,14.45,273.38,0.09,294.88,0c14.51-0.09,27.94,6.08,32.29,16.03c1.72,3.79-1.18,8.02-5.44,8.02l-8.16,0.09
				c3.27-11.98-11.79-22.64-24.58-19.82c-14.42,3.26-17.96,20.79-15.33,32.33c2.72,11.54,12.25,24.67,27.94,24.58c0,0,0.09,0,0.18,0
				c6.99,0,10.07-7.14,10.07-12.6c0-5.2-4.81-9.78-9.98-11.28l-7.08-2.03h32.93L327.8,49.78z"/>
			<path class="st3" d="M367,11.54c13.15,0,16.06,6.61,16.06,15.59c0,3.08-2.54,5.64-5.72,5.64H369c0,0,6.89-17.27-1.82-17.27
				c-11.07,0-14.42,6.61-14.42,19.65l0.09,14.8c0,5.29,1.09,8.81,2.09,11.01l0.09,0.18c0.64,1.14,1.18,1.85,1.45,2.2l0.18,0.18
				h-21.77l0.36-0.44c1-1.32,3.45-5.46,3.45-13.3l-0.09-23.52c0-4.49-0.91-7.93-1.81-10.22c-0.82-2.03-1.63-3.08-1.81-3.35
				c7.35,3.17,17.05,3.35,24.49,0.26c2.18-0.88,4.81-1.41,7.8-1.41H367z"/>
			<path class="st3" d="M422.16,59.91c13.79,0,23.22-12.6,23.22-12.6c-3.72,9.43-14.7,17.36-28.03,17.36
				c-17.96,0-29.21-12.07-29.21-26.69s11.25-26.34,29.21-26.34c14.24,0,25.4,7.31,28.57,19.29c1.36,5.2-2.54,9.87-7.98,9.87h-34.92
				c2.09,9.51,8.07,19.12,19.23,19.12H422.16z M412.46,16.04c-9.34,2.47-10.89,12.24-10.25,20.79h26.85c1.9,0,3.36-1.94,3.08-3.7
				c-1.63-10.04-8.98-19.91-19.59-17.09H412.46z"/>
			<path class="st3" d="M486.3,59.91c13.79,0,23.22-12.6,23.22-12.6c-3.72,9.43-14.7,17.36-28.03,17.36
				c-17.96,0-29.21-12.07-29.21-26.69s11.25-26.34,29.21-26.34c14.24,0,25.4,7.31,28.57,19.29c1.36,5.2-2.54,9.87-7.98,9.87h-34.92
				c2.09,9.51,8.07,19.12,19.23,19.12H486.3z M476.6,16.04c-9.34,2.47-10.89,12.24-10.25,20.79h26.85c1.9,0,3.36-1.94,3.08-3.7
				c-1.63-10.04-8.98-19.91-19.59-17.09H476.6z"/>
			<path class="st3" d="M556.89,63.34c1-1.32,3.45-5.46,3.45-13.3V35.33c0-13.04-3.26-19.65-11.97-19.65
				c-11.07,0-14.42,6.61-14.42,19.65l0.09,14.8c0,5.29,1.09,8.81,2.09,11.01l0.09,0.18c0.64,1.15,1.18,1.85,1.45,2.2l0.18,0.18
				h-21.77l0.36-0.44c1-1.32,3.45-5.46,3.45-13.3l-0.09-23.52c0-4.49-0.91-7.93-1.81-10.22c-0.82-2.03-1.63-3.08-1.81-3.35
				c7.35,3.17,15.78,3.35,23.22,0.26c2.18-0.88,6.08-1.41,9.07-1.41c18.41,0,24.85,11.89,24.85,26.52v11.8
				c0,5.29,1.09,8.81,2.09,11.01l0.09,0.18c0.64,1.14,1.18,1.85,1.45,2.2l0.18,0.18h-20.5l0.36-0.44L556.89,63.34z"/>
		</g>
		<g>
			<path class="st3" d="M173.06,99.44c0.15-0.05,0.3-0.04,0.43,0.03c0.13,0.07,0.17,0.22,0.1,0.46c-0.08,0.29-0.24,0.57-0.49,0.85
				c-0.25,0.28-0.56,0.54-0.94,0.77s-0.81,0.43-1.3,0.57c-0.49,0.14-1.01,0.21-1.57,0.21c-0.47,0-0.95-0.04-1.42-0.13
				c-0.47-0.09-0.92-0.24-1.35-0.45c-0.43-0.21-0.81-0.49-1.16-0.84c-0.35-0.35-0.63-0.78-0.86-1.3c-0.2-0.45-0.36-0.96-0.47-1.54
				c-0.11-0.58-0.2-1.24-0.26-1.98c-0.13-1.44-0.32-2.58-0.57-3.42c-0.25-0.84-0.54-1.47-0.86-1.9c-0.33-0.43-0.67-0.7-1.05-0.81
				c-0.37-0.11-0.73-0.17-1.07-0.17c-0.43,0-0.74,0.08-0.9,0.24c-0.17,0.16-0.25,0.44-0.25,0.84v7.47c0,0.58,0.13,1.06,0.38,1.42
				c0.25,0.36,0.55,0.65,0.89,0.86s0.68,0.36,1.01,0.44c0.33,0.08,0.58,0.13,0.73,0.16c0.12,0.03,0.2,0.07,0.26,0.13
				c0.06,0.06,0.08,0.13,0.08,0.2c-0.01,0.07-0.04,0.13-0.11,0.19c-0.06,0.06-0.16,0.08-0.29,0.08h-12.24
				c-0.13,0-0.22-0.03-0.29-0.08c-0.06-0.06-0.1-0.12-0.11-0.19c-0.01-0.07,0.02-0.13,0.08-0.2s0.14-0.11,0.26-0.13
				c0.15-0.02,0.4-0.08,0.73-0.16c0.33-0.08,0.67-0.23,1.01-0.44c0.34-0.21,0.64-0.5,0.89-0.86c0.26-0.36,0.38-0.83,0.38-1.42V80.11
				c0-0.57-0.13-1.04-0.38-1.41c-0.26-0.37-0.55-0.65-0.89-0.86c-0.34-0.21-0.67-0.35-1.01-0.44c-0.33-0.09-0.58-0.14-0.73-0.17
				c-0.11-0.01-0.2-0.05-0.26-0.12c-0.06-0.07-0.08-0.14-0.08-0.2c0.01-0.07,0.04-0.13,0.11-0.19c0.06-0.06,0.16-0.08,0.29-0.08
				h11.82c0.73,0,1.45,0.01,2.16,0.02c0.71,0.01,1.4,0.07,2.07,0.19c0.67,0.11,1.32,0.3,1.96,0.56c0.63,0.26,1.24,0.64,1.83,1.14
				c0.47,0.41,0.86,0.9,1.16,1.46c0.3,0.57,0.51,1.16,0.63,1.78c0.12,0.62,0.15,1.25,0.08,1.9c-0.07,0.65-0.24,1.25-0.51,1.81
				c-0.46,0.99-1.06,1.76-1.8,2.3c-0.74,0.54-1.63,0.95-2.67,1.24c-0.1,0.02-0.16,0.07-0.17,0.12c-0.01,0.06,0.03,0.09,0.11,0.1
				c0.1,0.03,0.28,0.07,0.54,0.13c0.26,0.06,0.54,0.16,0.86,0.31c0.32,0.14,0.64,0.34,0.96,0.59c0.32,0.25,0.59,0.56,0.81,0.93
				c0.27,0.46,0.46,1.04,0.57,1.74c0.11,0.7,0.18,1.45,0.2,2.23c0.05,0.86,0.1,1.57,0.16,2.13c0.06,0.57,0.16,1.01,0.32,1.33
				c0.12,0.26,0.27,0.46,0.45,0.59c0.19,0.13,0.38,0.22,0.59,0.27c0.2,0.05,0.41,0.07,0.61,0.05
				C172.73,99.54,172.91,99.5,173.06,99.44z M159.52,88.7c0.33,0,0.7-0.01,1.1-0.04c0.4-0.03,0.81-0.1,1.21-0.21
				c0.4-0.12,0.79-0.3,1.17-0.56c0.38-0.25,0.71-0.61,1-1.08c0.29-0.47,0.52-1.05,0.69-1.76c0.17-0.71,0.26-1.58,0.26-2.61
				c0-0.89-0.07-1.64-0.21-2.25c-0.14-0.6-0.34-1.09-0.61-1.45c-0.26-0.37-0.58-0.63-0.96-0.79c-0.38-0.16-0.8-0.24-1.28-0.24
				c-0.42,0-0.81,0.05-1.15,0.16c-0.35,0.11-0.64,0.28-0.89,0.51c-0.25,0.24-0.44,0.53-0.58,0.89c-0.13,0.36-0.2,0.8-0.2,1.32v7.7
				C159.08,88.56,159.22,88.7,159.52,88.7z"/>
			<path class="st3" d="M180.53,91.93c-0.2,0-0.31,0.11-0.31,0.32c0,1.27,0.11,2.35,0.35,3.26c0.23,0.91,0.57,1.65,1.01,2.23
				c0.44,0.58,0.99,1,1.65,1.28c0.66,0.27,1.42,0.41,2.29,0.41c0.66,0,1.26-0.07,1.78-0.2c0.52-0.14,0.97-0.3,1.35-0.48
				c0.38-0.18,0.7-0.35,0.94-0.51c0.24-0.16,0.42-0.27,0.54-0.32c0.18-0.08,0.32-0.06,0.42,0.05c0.1,0.11,0.1,0.26,0,0.48
				c-0.04,0.07-0.12,0.22-0.26,0.44c-0.13,0.22-0.33,0.47-0.59,0.75c-0.26,0.29-0.58,0.58-0.96,0.89c-0.38,0.31-0.84,0.6-1.37,0.86
				c-0.53,0.26-1.14,0.48-1.82,0.64c-0.68,0.17-1.45,0.25-2.29,0.25c-1.28,0-2.44-0.2-3.47-0.59c-1.04-0.39-1.92-0.96-2.66-1.7
				c-0.74-0.75-1.3-1.65-1.71-2.72c-0.4-1.07-0.6-2.27-0.6-3.62c0-1.47,0.25-2.76,0.75-3.89c0.5-1.13,1.15-2.08,1.96-2.84
				c0.81-0.76,1.72-1.35,2.74-1.74c1.02-0.4,2.07-0.6,3.13-0.6c1,0,1.88,0.13,2.64,0.4c0.76,0.27,1.42,0.61,1.98,1.04
				c0.56,0.43,1.02,0.91,1.38,1.44c0.36,0.53,0.66,1.05,0.88,1.57c0.22,0.52,0.38,1.01,0.47,1.47s0.13,0.83,0.13,1.1
				c0,0.12-0.04,0.21-0.12,0.26c-0.08,0.05-0.2,0.07-0.34,0.07H180.53z M180.32,90.69c-0.03,0.16,0.05,0.24,0.23,0.24
				c0.04,0,0.17,0,0.38-0.01c0.22-0.01,0.48-0.02,0.8-0.03c0.31-0.01,0.65-0.03,1.01-0.04c0.36-0.01,0.7-0.02,1.03-0.04
				c0.33-0.01,0.61-0.02,0.84-0.03c0.24-0.01,0.39-0.02,0.45-0.03c0.2-0.01,0.42-0.1,0.64-0.26c0.22-0.16,0.34-0.44,0.34-0.84
				c0-0.36-0.05-0.78-0.15-1.25c-0.1-0.47-0.27-0.92-0.49-1.34c-0.22-0.42-0.51-0.78-0.85-1.07c-0.35-0.29-0.77-0.44-1.27-0.44
				c-0.4,0-0.74,0.1-1.04,0.31c-0.29,0.2-0.55,0.47-0.76,0.8c-0.21,0.33-0.39,0.69-0.53,1.09c-0.14,0.4-0.26,0.79-0.35,1.17
				c-0.09,0.38-0.16,0.73-0.2,1.04C180.36,90.29,180.33,90.53,180.32,90.69z"/>
			<path class="st3" d="M212.86,101.26c0.1,0.03,0.18,0.07,0.22,0.12c0.04,0.06,0.06,0.12,0.05,0.18c-0.01,0.06-0.05,0.12-0.11,0.17
				s-0.14,0.07-0.24,0.07h-6.95c-0.14,0-0.25-0.03-0.34-0.09s-0.12-0.16-0.12-0.3v-1.1c-0.54,0.52-1.23,0.98-2.09,1.37
				c-0.86,0.39-1.92,0.59-3.19,0.59c-1.05,0-1.93-0.11-2.64-0.34c-0.71-0.22-1.3-0.52-1.77-0.89c-0.47-0.37-0.83-0.8-1.07-1.29
				c-0.25-0.48-0.43-0.99-0.54-1.51c-0.11-0.52-0.17-1.04-0.19-1.56c-0.02-0.52-0.03-1-0.03-1.44v-7.29c0-0.5-0.1-0.9-0.31-1.2
				s-0.44-0.54-0.7-0.71c-0.26-0.17-0.52-0.28-0.77-0.35c-0.25-0.06-0.43-0.1-0.53-0.13c-0.1-0.01-0.18-0.05-0.22-0.11
				c-0.05-0.06-0.06-0.12-0.05-0.19c0.01-0.06,0.05-0.12,0.11-0.17s0.14-0.07,0.24-0.07h6.95c0.31,0,0.46,0.16,0.46,0.48v10.9
				c0.01,0.5,0.06,0.99,0.14,1.49c0.08,0.5,0.24,0.95,0.46,1.35c0.22,0.4,0.54,0.73,0.94,0.98c0.4,0.25,0.94,0.37,1.62,0.37
				c0.72,0,1.28-0.15,1.7-0.44c0.42-0.29,0.73-0.66,0.95-1.11c0.22-0.45,0.36-0.94,0.42-1.48c0.06-0.54,0.1-1.06,0.1-1.56v-8.07
				c0-0.5-0.1-0.9-0.31-1.2s-0.44-0.54-0.7-0.71c-0.26-0.17-0.52-0.28-0.77-0.35c-0.25-0.06-0.43-0.1-0.53-0.13
				c-0.1-0.01-0.18-0.05-0.22-0.11c-0.05-0.06-0.06-0.12-0.05-0.19c0.01-0.06,0.05-0.12,0.11-0.17s0.14-0.07,0.24-0.07h6.95
				c0.31,0,0.46,0.16,0.46,0.48v13.36c0,0.5,0.1,0.9,0.31,1.2c0.2,0.3,0.44,0.54,0.7,0.71c0.26,0.17,0.52,0.29,0.77,0.35
				C212.59,101.21,212.76,101.25,212.86,101.26z"/>
			<path class="st3" d="M235.45,101.26c0.1,0.03,0.18,0.07,0.22,0.12c0.05,0.06,0.06,0.12,0.05,0.18s-0.05,0.12-0.1,0.17
				c-0.06,0.05-0.14,0.07-0.24,0.07h-2.23h-0.17h-4.84h-0.17h-2.23c-0.1,0-0.18-0.02-0.24-0.07s-0.09-0.11-0.1-0.17
				c-0.01-0.06,0-0.12,0.05-0.18c0.05-0.06,0.12-0.1,0.22-0.12c0.1-0.01,0.28-0.05,0.53-0.12c0.25-0.07,0.51-0.19,0.77-0.35
				c0.26-0.17,0.5-0.4,0.7-0.71c0.2-0.3,0.31-0.7,0.31-1.2v-6.84v-0.15v-1.04c-0.01-0.52-0.05-1.06-0.12-1.61s-0.22-1.06-0.44-1.51
				c-0.22-0.45-0.55-0.83-0.98-1.12c-0.43-0.29-1-0.44-1.72-0.44c-0.74,0-1.32,0.14-1.73,0.43c-0.41,0.29-0.71,0.64-0.91,1.06
				c-0.2,0.42-0.32,0.87-0.36,1.35c-0.05,0.48-0.07,0.9-0.07,1.28v8.59c0,0.5,0.1,0.9,0.31,1.2c0.2,0.3,0.44,0.54,0.7,0.71
				c0.26,0.17,0.52,0.29,0.77,0.35c0.25,0.07,0.42,0.11,0.53,0.12c0.1,0.03,0.18,0.07,0.22,0.12c0.05,0.06,0.06,0.12,0.05,0.18
				s-0.05,0.12-0.1,0.17c-0.06,0.05-0.14,0.07-0.24,0.07h-9.63c-0.1,0-0.18-0.02-0.24-0.07c-0.06-0.05-0.09-0.11-0.1-0.17
				c-0.01-0.06,0-0.12,0.05-0.18c0.04-0.06,0.12-0.1,0.22-0.12c0.1-0.01,0.28-0.05,0.53-0.12c0.25-0.07,0.51-0.19,0.77-0.35
				c0.26-0.17,0.5-0.4,0.7-0.71c0.2-0.3,0.31-0.7,0.31-1.2V88.51c0-0.16-0.08-0.26-0.23-0.3c-0.03,0-0.12-0.02-0.28-0.06
				c-0.16-0.04-0.34-0.08-0.55-0.13c-0.2-0.05-0.39-0.09-0.57-0.13c-0.17-0.04-0.28-0.06-0.32-0.08c-0.17-0.04-0.25-0.12-0.26-0.25
				c-0.01-0.13,0.09-0.22,0.28-0.27c0.5-0.11,1.04-0.26,1.62-0.46s1.17-0.41,1.76-0.65c0.59-0.24,1.16-0.5,1.71-0.78
				c0.55-0.28,1.04-0.56,1.48-0.85c0.12-0.07,0.23-0.1,0.35-0.09c0.12,0.01,0.18,0.1,0.18,0.28v1.6c0.27-0.24,0.58-0.46,0.92-0.68
				c0.35-0.22,0.73-0.41,1.16-0.57c0.43-0.16,0.91-0.29,1.44-0.39c0.53-0.1,1.12-0.15,1.76-0.15c1.05,0,1.93,0.11,2.64,0.34
				c0.71,0.22,1.3,0.52,1.77,0.9c0.47,0.37,0.83,0.8,1.07,1.29c0.25,0.48,0.43,0.99,0.54,1.51c0.11,0.52,0.17,1.04,0.19,1.56
				c0.02,0.52,0.03,1,0.03,1.45v0.09v7.19c0,0.5,0.1,0.9,0.31,1.2c0.2,0.3,0.44,0.54,0.7,0.71c0.26,0.17,0.52,0.29,0.77,0.35
				C235.17,101.21,235.35,101.25,235.45,101.26z"/>
			<path class="st3" d="M243.76,98.88c0,0.5,0.1,0.9,0.31,1.2c0.2,0.3,0.44,0.54,0.7,0.71c0.26,0.17,0.52,0.29,0.77,0.35
				c0.25,0.07,0.43,0.11,0.53,0.12c0.1,0.03,0.18,0.07,0.22,0.12c0.04,0.06,0.06,0.12,0.05,0.18c-0.01,0.06-0.05,0.12-0.11,0.17
				s-0.14,0.07-0.24,0.07h-9.63c-0.1,0-0.18-0.02-0.24-0.07s-0.09-0.11-0.11-0.17s0-0.12,0.05-0.18c0.05-0.06,0.12-0.1,0.22-0.12
				c0.1-0.01,0.28-0.05,0.53-0.12c0.25-0.07,0.5-0.19,0.77-0.35c0.26-0.17,0.5-0.4,0.7-0.71c0.2-0.3,0.31-0.7,0.31-1.2V88.51
				c0-0.16-0.08-0.26-0.23-0.3c-0.03,0-0.12-0.02-0.28-0.06c-0.16-0.04-0.34-0.08-0.55-0.13c-0.21-0.05-0.39-0.09-0.57-0.13
				c-0.17-0.04-0.28-0.06-0.32-0.08c-0.17-0.04-0.25-0.12-0.26-0.25c-0.01-0.13,0.09-0.22,0.28-0.27c0.5-0.11,1.04-0.26,1.62-0.46
				c0.58-0.19,1.17-0.41,1.76-0.65c0.59-0.24,1.16-0.5,1.71-0.78c0.55-0.28,1.04-0.56,1.48-0.85c0.12-0.07,0.23-0.1,0.36-0.09
				s0.18,0.1,0.18,0.28V98.88z M243.91,77.89c-0.15-0.36-0.37-0.67-0.64-0.94c-0.27-0.27-0.6-0.48-0.98-0.63
				c-0.38-0.15-0.8-0.23-1.26-0.23c-0.45,0-0.87,0.08-1.27,0.24c-0.4,0.16-0.74,0.38-1.03,0.65c-0.29,0.27-0.52,0.59-0.68,0.96
				c-0.17,0.37-0.25,0.75-0.25,1.17c0,0.41,0.08,0.8,0.23,1.15c0.15,0.36,0.37,0.67,0.64,0.93c0.27,0.26,0.6,0.47,0.98,0.62
				c0.38,0.16,0.79,0.23,1.24,0.23c0.46,0,0.89-0.08,1.28-0.24c0.39-0.16,0.73-0.38,1.03-0.64c0.29-0.27,0.52-0.58,0.69-0.95
				c0.17-0.37,0.25-0.75,0.25-1.16C244.14,78.64,244.07,78.25,243.91,77.89z"/>
			<path class="st3" d="M259.07,84.56c0.54,0,0.99,0.07,1.36,0.2s0.67,0.3,0.9,0.52c0.23,0.22,0.4,0.47,0.5,0.76
				c0.1,0.29,0.15,0.6,0.15,0.92c0,0.6-0.2,1.06-0.59,1.4c-0.39,0.34-0.91,0.5-1.56,0.5c-0.5,0-0.89-0.09-1.17-0.26
				c-0.28-0.17-0.52-0.36-0.72-0.57c-0.2-0.21-0.38-0.39-0.55-0.57c-0.17-0.17-0.37-0.26-0.61-0.26c-0.22,0-0.45,0.07-0.7,0.21
				c-0.25,0.14-0.48,0.41-0.69,0.81c-0.21,0.4-0.39,0.94-0.53,1.64c-0.14,0.7-0.21,1.6-0.21,2.7v6.45c0,0.5,0.09,0.89,0.26,1.17
				c0.17,0.29,0.37,0.5,0.59,0.65c0.22,0.15,0.44,0.25,0.66,0.31c0.22,0.06,0.38,0.09,0.48,0.1c0.1,0.03,0.18,0.07,0.22,0.12
				c0.04,0.06,0.06,0.12,0.05,0.18c-0.01,0.06-0.05,0.12-0.1,0.17s-0.14,0.07-0.24,0.07h-1.92h-0.17h-4.84h-0.17h-1.92
				c-0.1,0-0.18-0.02-0.24-0.07s-0.09-0.11-0.11-0.17c-0.01-0.06,0-0.12,0.05-0.18s0.12-0.1,0.22-0.12c0.1-0.01,0.26-0.05,0.48-0.1
				c0.22-0.06,0.44-0.16,0.66-0.31c0.22-0.15,0.42-0.37,0.6-0.65c0.17-0.29,0.26-0.68,0.26-1.17V88.51c0-0.16-0.08-0.26-0.23-0.3
				c-0.03,0-0.12-0.02-0.28-0.06c-0.16-0.04-0.34-0.08-0.55-0.13c-0.2-0.05-0.39-0.09-0.57-0.13c-0.17-0.04-0.28-0.06-0.32-0.08
				c-0.17-0.04-0.25-0.12-0.26-0.25s0.09-0.22,0.28-0.27c0.5-0.11,1.04-0.26,1.62-0.46c0.58-0.19,1.17-0.41,1.76-0.65
				c0.59-0.24,1.16-0.5,1.71-0.78c0.55-0.28,1.04-0.56,1.48-0.85c0.12-0.07,0.23-0.1,0.35-0.09c0.12,0.01,0.18,0.1,0.18,0.28v2.67
				c0.45-0.96,1.06-1.67,1.82-2.14C257.25,84.8,258.11,84.56,259.07,84.56z"/>
			<path class="st3" d="M264.93,101.91c-0.17-0.16-0.33-0.33-0.5-0.49c-0.17-0.17-0.31-0.35-0.44-0.53s-0.23-0.4-0.32-0.63
				c-0.08-0.24-0.12-0.5-0.12-0.8c0-0.36,0.07-0.7,0.21-1.02c0.14-0.32,0.34-0.61,0.59-0.85c0.25-0.24,0.54-0.43,0.88-0.58
				c0.34-0.14,0.71-0.21,1.1-0.21c0.4,0,0.76,0.08,1.09,0.24c0.33,0.16,0.62,0.38,0.85,0.64c0.24,0.27,0.42,0.58,0.55,0.93
				c0.13,0.35,0.19,0.72,0.19,1.11c0,0.83-0.14,1.6-0.43,2.29c-0.29,0.7-0.66,1.32-1.12,1.86c-0.46,0.55-0.97,1.03-1.54,1.44
				s-1.11,0.76-1.65,1.03c-0.18,0.1-0.32,0.09-0.41-0.03c-0.1-0.12-0.05-0.27,0.12-0.46c0.27-0.26,0.51-0.57,0.73-0.93
				c0.22-0.36,0.38-0.73,0.49-1.1c0.11-0.37,0.15-0.73,0.12-1.07C265.29,102.42,265.16,102.14,264.93,101.91z"/>
			<path class="st3" d="M279.32,89.35c0-1.81,0.36-3.52,1.07-5.12c0.72-1.6,1.7-3.01,2.96-4.21c1.26-1.2,2.74-2.16,4.44-2.85
				c1.7-0.7,3.54-1.04,5.53-1.04c1.09,0,2.06,0.08,2.93,0.24c0.86,0.16,1.6,0.34,2.22,0.55c0.61,0.2,1.1,0.4,1.45,0.58
				c0.35,0.18,0.55,0.29,0.59,0.33c0.15,0.11,0.23,0.24,0.23,0.39v4.42c0,0.09-0.03,0.16-0.08,0.2c-0.05,0.05-0.11,0.08-0.17,0.09
				c-0.06,0.01-0.13,0-0.19-0.04c-0.06-0.04-0.12-0.09-0.15-0.17c-0.24-0.56-0.53-1.16-0.87-1.81c-0.34-0.65-0.76-1.25-1.28-1.8
				c-0.51-0.55-1.12-1.01-1.83-1.37s-1.55-0.54-2.52-0.54c-1.24,0-2.3,0.31-3.18,0.94c-0.88,0.63-1.59,1.48-2.15,2.57
				c-0.56,1.09-0.96,2.36-1.22,3.82c-0.26,1.46-0.38,3.02-0.38,4.67c0,1.67,0.2,3.14,0.6,4.44c0.4,1.29,1,2.38,1.79,3.27
				s1.79,1.57,2.98,2.03c1.2,0.47,2.58,0.7,4.16,0.7c0.83,0,1.7-0.09,2.6-0.26c0.9-0.17,1.78-0.48,2.64-0.91
				c0.09-0.05,0.18-0.07,0.26-0.05c0.08,0.02,0.15,0.05,0.19,0.1c0.05,0.05,0.06,0.11,0.06,0.2c-0.01,0.08-0.05,0.16-0.14,0.25
				c-1.11,1.07-2.42,1.89-3.91,2.48c-1.5,0.58-3.19,0.88-5.09,0.88c-2.14,0-4.04-0.34-5.72-1.01c-1.68-0.67-3.09-1.59-4.25-2.77
				c-1.16-1.17-2.04-2.55-2.65-4.12C279.62,92.86,279.32,91.17,279.32,89.35z"/>
			<path class="st3" d="M312.06,84.56c1.32,0,2.53,0.23,3.64,0.68c1.11,0.45,2.06,1.07,2.85,1.86c0.79,0.79,1.41,1.72,1.86,2.79
				c0.45,1.07,0.67,2.21,0.67,3.43c0,1.23-0.24,2.39-0.73,3.47c-0.49,1.08-1.15,2.03-2,2.84s-1.84,1.46-2.98,1.93
				c-1.15,0.47-2.38,0.71-3.69,0.71c-1.32,0-2.53-0.23-3.64-0.68c-1.11-0.45-2.06-1.07-2.85-1.86c-0.79-0.79-1.41-1.72-1.86-2.78
				c-0.45-1.06-0.67-2.21-0.67-3.44c0-1.22,0.24-2.37,0.73-3.46c0.49-1.09,1.15-2.04,2-2.85c0.85-0.81,1.84-1.46,2.98-1.93
				C309.51,84.8,310.74,84.56,312.06,84.56z M311.86,101.28c0.61,0,1.15-0.21,1.6-0.62c0.45-0.41,0.83-0.97,1.13-1.69
				c0.3-0.71,0.53-1.55,0.68-2.51c0.15-0.96,0.23-1.98,0.23-3.06c0-1.08-0.08-2.1-0.23-3.06c-0.15-0.96-0.38-1.79-0.68-2.51
				c-0.3-0.71-0.68-1.28-1.13-1.69c-0.45-0.41-0.99-0.62-1.6-0.62c-0.61,0-1.15,0.2-1.6,0.62c-0.45,0.41-0.83,0.97-1.14,1.69
				c-0.31,0.71-0.53,1.55-0.68,2.51c-0.15,0.96-0.22,1.97-0.22,3.06c0,1.08,0.07,2.1,0.22,3.06c0.15,0.96,0.37,1.79,0.68,2.51
				c0.31,0.71,0.69,1.28,1.14,1.69C310.72,101.07,311.25,101.28,311.86,101.28z"/>
			<path class="st3" d="M343.47,101.26c0.1,0.03,0.18,0.07,0.22,0.12c0.05,0.06,0.06,0.12,0.05,0.18c-0.01,0.06-0.05,0.12-0.1,0.17
				c-0.06,0.05-0.14,0.07-0.24,0.07h-2.23h-0.17h-4.84h-0.17h-2.23c-0.1,0-0.18-0.02-0.24-0.07c-0.06-0.05-0.09-0.11-0.1-0.17
				c-0.01-0.06,0-0.12,0.05-0.18c0.05-0.06,0.12-0.1,0.22-0.12c0.1-0.01,0.28-0.05,0.53-0.12c0.25-0.07,0.51-0.19,0.77-0.35
				c0.26-0.17,0.5-0.4,0.7-0.71c0.2-0.3,0.31-0.7,0.31-1.2v-6.84v-0.15v-1.04c-0.01-0.52-0.05-1.06-0.12-1.61
				c-0.07-0.55-0.22-1.06-0.44-1.51c-0.22-0.45-0.55-0.83-0.98-1.12c-0.43-0.29-1-0.44-1.72-0.44c-0.74,0-1.32,0.14-1.73,0.43
				c-0.41,0.29-0.71,0.64-0.91,1.06c-0.2,0.42-0.32,0.87-0.36,1.35c-0.05,0.48-0.07,0.9-0.07,1.28v8.59c0,0.5,0.1,0.9,0.31,1.2
				c0.2,0.3,0.44,0.54,0.7,0.71c0.26,0.17,0.52,0.29,0.77,0.35c0.25,0.07,0.42,0.11,0.53,0.12c0.1,0.03,0.18,0.07,0.22,0.12
				c0.05,0.06,0.06,0.12,0.05,0.18c-0.01,0.06-0.05,0.12-0.1,0.17c-0.06,0.05-0.14,0.07-0.24,0.07h-9.63c-0.1,0-0.18-0.02-0.24-0.07
				c-0.06-0.05-0.09-0.11-0.1-0.17c-0.01-0.06,0-0.12,0.05-0.18c0.04-0.06,0.12-0.1,0.22-0.12c0.1-0.01,0.28-0.05,0.53-0.12
				c0.25-0.07,0.51-0.19,0.77-0.35c0.26-0.17,0.5-0.4,0.7-0.71c0.2-0.3,0.31-0.7,0.31-1.2V88.51c0-0.16-0.08-0.26-0.23-0.3
				c-0.03,0-0.12-0.02-0.28-0.06c-0.16-0.04-0.34-0.08-0.55-0.13c-0.2-0.05-0.39-0.09-0.57-0.13c-0.17-0.04-0.28-0.06-0.32-0.08
				c-0.17-0.04-0.25-0.12-0.26-0.25c-0.01-0.13,0.09-0.22,0.28-0.27c0.5-0.11,1.04-0.26,1.62-0.46c0.58-0.19,1.17-0.41,1.76-0.65
				c0.59-0.24,1.16-0.5,1.71-0.78c0.55-0.28,1.04-0.56,1.48-0.85c0.12-0.07,0.23-0.1,0.35-0.09c0.12,0.01,0.18,0.1,0.18,0.28v1.6
				c0.27-0.24,0.58-0.46,0.92-0.68c0.35-0.22,0.73-0.41,1.16-0.57c0.43-0.16,0.91-0.29,1.44-0.39c0.53-0.1,1.12-0.15,1.76-0.15
				c1.05,0,1.93,0.11,2.64,0.34c0.71,0.22,1.3,0.52,1.77,0.9c0.47,0.37,0.83,0.8,1.07,1.29c0.25,0.48,0.43,0.99,0.54,1.51
				c0.11,0.52,0.17,1.04,0.19,1.56c0.02,0.52,0.03,1,0.03,1.45v0.09v7.19c0,0.5,0.1,0.9,0.31,1.2c0.2,0.3,0.44,0.54,0.7,0.71
				c0.26,0.17,0.52,0.29,0.77,0.35C343.19,101.21,343.37,101.25,343.47,101.26z"/>
			<path class="st3" d="M349.9,91.93c-0.2,0-0.31,0.11-0.31,0.32c0,1.27,0.12,2.35,0.35,3.26c0.23,0.91,0.56,1.65,1.01,2.23
				c0.44,0.58,0.99,1,1.65,1.28c0.66,0.27,1.42,0.41,2.29,0.41c0.66,0,1.26-0.07,1.77-0.2c0.52-0.14,0.97-0.3,1.35-0.48
				c0.38-0.18,0.7-0.35,0.94-0.51c0.24-0.16,0.42-0.27,0.54-0.32c0.18-0.08,0.32-0.06,0.42,0.05c0.1,0.11,0.1,0.26,0,0.48
				c-0.04,0.07-0.12,0.22-0.26,0.44c-0.14,0.22-0.33,0.47-0.59,0.75c-0.26,0.29-0.57,0.58-0.96,0.89c-0.38,0.31-0.84,0.6-1.37,0.86
				c-0.53,0.26-1.14,0.48-1.82,0.64c-0.69,0.17-1.45,0.25-2.29,0.25c-1.28,0-2.44-0.2-3.47-0.59c-1.04-0.39-1.92-0.96-2.66-1.7
				c-0.74-0.75-1.3-1.65-1.71-2.72c-0.4-1.07-0.6-2.27-0.6-3.62c0-1.47,0.25-2.76,0.75-3.89c0.5-1.13,1.15-2.08,1.96-2.84
				c0.81-0.76,1.72-1.35,2.74-1.74c1.02-0.4,2.07-0.6,3.13-0.6c1,0,1.88,0.13,2.64,0.4c0.76,0.27,1.42,0.61,1.98,1.04
				c0.56,0.43,1.02,0.91,1.38,1.44c0.36,0.53,0.66,1.05,0.88,1.57c0.22,0.52,0.38,1.01,0.47,1.47c0.09,0.46,0.13,0.83,0.13,1.1
				c0,0.12-0.04,0.21-0.13,0.26c-0.08,0.05-0.2,0.07-0.34,0.07H349.9z M349.69,90.69c-0.03,0.16,0.05,0.24,0.23,0.24
				c0.04,0,0.17,0,0.38-0.01c0.22-0.01,0.48-0.02,0.8-0.03s0.65-0.03,1.01-0.04c0.36-0.01,0.7-0.02,1.03-0.04
				c0.33-0.01,0.61-0.02,0.84-0.03c0.24-0.01,0.39-0.02,0.45-0.03c0.21-0.01,0.42-0.1,0.64-0.26c0.22-0.16,0.34-0.44,0.34-0.84
				c0-0.36-0.05-0.78-0.15-1.25s-0.27-0.92-0.49-1.34c-0.22-0.42-0.51-0.78-0.86-1.07c-0.34-0.29-0.77-0.44-1.26-0.44
				c-0.4,0-0.74,0.1-1.04,0.31c-0.29,0.2-0.55,0.47-0.76,0.8c-0.21,0.33-0.39,0.69-0.53,1.09c-0.14,0.4-0.26,0.79-0.34,1.17
				c-0.09,0.38-0.16,0.73-0.2,1.04C349.73,90.29,349.7,90.53,349.69,90.69z"/>
			<path class="st3" d="M370.39,85.59c-0.51,0-0.98,0.17-1.41,0.51c-0.43,0.34-0.8,0.82-1.1,1.44c-0.31,0.62-0.55,1.37-0.71,2.25
				c-0.17,0.88-0.25,1.84-0.25,2.9c0,1.07,0.14,2.02,0.41,2.86c0.27,0.84,0.65,1.55,1.14,2.13c0.49,0.58,1.06,1.03,1.71,1.34
				s1.35,0.47,2.11,0.47c0.73,0,1.4-0.1,2.01-0.32c0.61-0.21,1.15-0.45,1.61-0.71c0.47-0.26,0.85-0.51,1.15-0.75
				c0.3-0.24,0.51-0.38,0.62-0.43c0.18-0.07,0.32-0.06,0.43,0.05c0.11,0.1,0.1,0.26-0.01,0.47c-0.08,0.14-0.2,0.34-0.38,0.62
				c-0.18,0.27-0.42,0.57-0.72,0.9c-0.3,0.33-0.66,0.67-1.08,1.02c-0.42,0.35-0.91,0.66-1.47,0.95c-0.56,0.29-1.18,0.52-1.88,0.7
				c-0.7,0.18-1.47,0.27-2.33,0.27c-1.33,0-2.53-0.19-3.59-0.56c-1.06-0.37-1.97-0.92-2.72-1.64c-0.76-0.72-1.33-1.61-1.74-2.66
				c-0.4-1.05-0.6-2.25-0.6-3.59c0-1.18,0.15-2.23,0.46-3.15c0.31-0.92,0.71-1.72,1.22-2.4c0.51-0.68,1.08-1.26,1.74-1.73
				c0.65-0.47,1.32-0.85,2.01-1.15c0.69-0.29,1.36-0.5,2.03-0.63c0.66-0.13,1.26-0.2,1.8-0.2c0.87,0,1.67,0.08,2.4,0.23
				c0.73,0.16,1.36,0.37,1.88,0.65c0.52,0.28,0.93,0.61,1.23,0.99c0.3,0.38,0.44,0.79,0.44,1.22c0,0.38-0.07,0.71-0.2,0.97
				c-0.13,0.26-0.31,0.48-0.52,0.64c-0.21,0.17-0.45,0.29-0.71,0.36s-0.53,0.11-0.79,0.11c-0.38,0-0.75-0.07-1.08-0.2
				c-0.34-0.14-0.62-0.37-0.83-0.69c-0.17-0.24-0.3-0.54-0.4-0.91c-0.1-0.37-0.22-0.73-0.36-1.08c-0.13-0.35-0.31-0.65-0.53-0.9
				C371.13,85.71,370.82,85.59,370.39,85.59z"/>
			<path class="st3" d="M391.04,99.1c0.23-0.11,0.4-0.1,0.5,0.04c0.1,0.14,0.11,0.28,0.02,0.43c-0.23,0.4-0.52,0.76-0.87,1.09
				c-0.35,0.33-0.75,0.61-1.2,0.86c-0.45,0.24-0.94,0.43-1.47,0.56c-0.53,0.13-1.09,0.2-1.68,0.2c-0.64,0-1.27-0.08-1.9-0.24
				c-0.63-0.16-1.19-0.45-1.69-0.87c-0.5-0.42-0.91-0.98-1.22-1.7c-0.31-0.71-0.47-1.62-0.47-2.73V86.26c0-0.1-0.05-0.15-0.15-0.15
				h-0.5c-0.31,0-0.5-0.02-0.57-0.06c-0.07-0.04-0.1-0.12-0.1-0.24c0-0.16,0.07-0.33,0.22-0.51s0.33-0.27,0.55-0.27h0.42
				c0.09,0,0.13-0.05,0.13-0.15v-4.45c0-0.27,0.12-0.43,0.35-0.47c0.32-0.06,0.66-0.15,1.03-0.25c0.36-0.1,0.74-0.23,1.11-0.37
				c0.38-0.14,0.75-0.3,1.11-0.47c0.36-0.17,0.7-0.35,1.01-0.53c0.14-0.08,0.27-0.09,0.39-0.04s0.18,0.17,0.18,0.37v6.22
				c0,0.09,0.05,0.13,0.15,0.13H390c0.31,0,0.5,0.02,0.57,0.05c0.07,0.04,0.11,0.12,0.11,0.24c0,0.16-0.09,0.33-0.27,0.51
				c-0.18,0.18-0.38,0.27-0.6,0.27h-3.44c-0.09,0-0.13,0.04-0.13,0.13V97.7c0,0.34,0.06,0.63,0.18,0.89
				c0.12,0.25,0.28,0.47,0.48,0.65c0.2,0.18,0.43,0.31,0.69,0.4c0.26,0.09,0.53,0.13,0.8,0.13c0.55,0,1.06-0.08,1.54-0.23
				C390.4,99.38,390.77,99.24,391.04,99.1z"/>
			<path class="st3" d="M409.19,100.09c0.18-0.04,0.32,0,0.42,0.1c0.1,0.11,0.11,0.25,0.02,0.42c-0.08,0.14-0.2,0.3-0.37,0.48
				c-0.17,0.19-0.4,0.36-0.69,0.52c-0.29,0.16-0.64,0.3-1.06,0.41c-0.42,0.11-0.91,0.17-1.47,0.17c-0.78,0-1.44-0.15-1.97-0.46
				c-0.53-0.3-0.9-0.65-1.1-1.05c-0.05-0.1-0.12-0.14-0.22-0.13c-0.1,0.01-0.18,0.05-0.24,0.11c-0.04,0.04-0.16,0.14-0.36,0.31
				c-0.2,0.17-0.48,0.35-0.84,0.54c-0.36,0.19-0.8,0.37-1.32,0.52c-0.51,0.15-1.1,0.23-1.77,0.23c-1.14,0-2.09-0.15-2.87-0.47
				c-0.77-0.31-1.4-0.71-1.88-1.2c-0.48-0.49-0.82-1.04-1.04-1.66s-0.32-1.23-0.32-1.84c0-0.98,0.29-1.84,0.85-2.57
				s1.31-1.28,2.22-1.64c0.49-0.19,0.99-0.32,1.52-0.4c0.53-0.08,1.06-0.16,1.58-0.25c0.52-0.09,1.04-0.2,1.55-0.33
				c0.5-0.13,0.98-0.35,1.43-0.64c0.47-0.31,0.8-0.71,0.99-1.19c0.19-0.48,0.28-1,0.28-1.55c0-0.4-0.05-0.78-0.16-1.15
				c-0.11-0.37-0.26-0.69-0.46-0.96c-0.2-0.27-0.43-0.49-0.69-0.65c-0.26-0.16-0.55-0.24-0.85-0.24c-0.55,0-0.95,0.14-1.21,0.41
				c-0.26,0.27-0.46,0.6-0.6,0.99c-0.15,0.38-0.29,0.79-0.41,1.2c-0.13,0.42-0.33,0.77-0.61,1.07c-0.23,0.24-0.53,0.41-0.89,0.53
				c-0.36,0.12-0.71,0.18-1.05,0.18c-0.35,0-0.65-0.06-0.92-0.17s-0.5-0.26-0.69-0.46c-0.19-0.19-0.34-0.42-0.43-0.67
				c-0.1-0.25-0.14-0.52-0.14-0.81c0-0.38,0.1-0.77,0.29-1.15c0.19-0.38,0.53-0.73,1.03-1.04c0.49-0.31,1.15-0.56,1.99-0.75
				c0.83-0.19,1.89-0.29,3.17-0.29c1.42,0,2.63,0.14,3.64,0.42c1,0.28,1.82,0.69,2.46,1.22c0.63,0.53,1.09,1.2,1.38,1.98
				c0.29,0.79,0.43,1.69,0.43,2.69c0,1.21-0.04,2.34-0.12,3.39c-0.08,1.06-0.13,1.99-0.16,2.8c-0.03,0.81-0.02,1.48,0.05,2.01
				c0.06,0.53,0.24,0.85,0.54,0.98c0.13,0.06,0.29,0.09,0.48,0.08C408.77,100.15,408.98,100.12,409.19,100.09z M402.54,91.76
				c0-0.07-0.03-0.12-0.1-0.15c-0.06-0.02-0.12-0.01-0.17,0.06c-0.1,0.11-0.2,0.22-0.28,0.32c-0.08,0.1-0.2,0.22-0.34,0.35
				c-0.24,0.25-0.49,0.48-0.75,0.7c-0.26,0.22-0.51,0.44-0.77,0.66c-0.26,0.2-0.51,0.4-0.76,0.6s-0.48,0.42-0.7,0.65
				c-0.33,0.37-0.58,0.78-0.74,1.22c-0.16,0.44-0.24,0.91-0.24,1.41c0,0.34,0.05,0.67,0.15,1.02c0.1,0.34,0.26,0.65,0.47,0.91
				c0.21,0.27,0.48,0.48,0.81,0.65c0.33,0.17,0.72,0.25,1.18,0.25c0.46,0,0.83-0.09,1.12-0.28s0.51-0.41,0.67-0.67
				c0.16-0.26,0.27-0.52,0.34-0.79c0.07-0.27,0.1-0.48,0.1-0.62V91.76z"/>
			<path class="st3" d="M422.74,84.56c0.54,0,0.99,0.07,1.36,0.2s0.67,0.3,0.9,0.52c0.23,0.22,0.4,0.47,0.5,0.76s0.15,0.6,0.15,0.92
				c0,0.6-0.2,1.06-0.59,1.4c-0.39,0.34-0.91,0.5-1.56,0.5c-0.5,0-0.89-0.09-1.17-0.26s-0.52-0.36-0.72-0.57
				c-0.2-0.21-0.38-0.39-0.55-0.57c-0.17-0.17-0.37-0.26-0.61-0.26c-0.22,0-0.45,0.07-0.7,0.21c-0.25,0.14-0.48,0.41-0.69,0.81
				c-0.21,0.4-0.39,0.94-0.53,1.64s-0.21,1.6-0.21,2.7v6.45c0,0.5,0.09,0.89,0.26,1.17c0.17,0.29,0.37,0.5,0.59,0.65
				c0.22,0.15,0.44,0.25,0.66,0.31s0.38,0.09,0.48,0.1c0.1,0.03,0.17,0.07,0.22,0.12c0.04,0.06,0.06,0.12,0.05,0.18
				c-0.01,0.06-0.05,0.12-0.11,0.17c-0.06,0.05-0.14,0.07-0.24,0.07h-1.92h-0.17h-4.84h-0.17h-1.92c-0.1,0-0.18-0.02-0.24-0.07
				c-0.06-0.05-0.09-0.11-0.11-0.17c-0.01-0.06,0-0.12,0.05-0.18s0.12-0.1,0.22-0.12c0.1-0.01,0.26-0.05,0.48-0.1
				s0.44-0.16,0.66-0.31c0.22-0.15,0.42-0.37,0.59-0.65c0.17-0.29,0.26-0.68,0.26-1.17V88.51c0-0.16-0.08-0.26-0.23-0.3
				c-0.03,0-0.12-0.02-0.28-0.06c-0.16-0.04-0.34-0.08-0.55-0.13c-0.21-0.05-0.39-0.09-0.57-0.13c-0.17-0.04-0.28-0.06-0.32-0.08
				c-0.17-0.04-0.25-0.12-0.26-0.25c-0.01-0.13,0.09-0.22,0.28-0.27c0.5-0.11,1.04-0.26,1.62-0.46c0.58-0.19,1.17-0.41,1.76-0.65
				c0.59-0.24,1.16-0.5,1.71-0.78c0.55-0.28,1.04-0.56,1.48-0.85c0.12-0.07,0.23-0.1,0.35-0.09c0.12,0.01,0.18,0.1,0.18,0.28v2.67
				c0.45-0.96,1.06-1.67,1.82-2.14C420.92,84.8,421.78,84.56,422.74,84.56z"/>
			<path class="st3" d="M437.94,106.26l2.51-5.44c-0.21-0.46-0.47-1.07-0.81-1.83c-0.33-0.76-0.7-1.58-1.09-2.47
				c-0.4-0.89-0.8-1.8-1.21-2.73c-0.41-0.93-0.79-1.79-1.15-2.58c-0.36-0.79-0.66-1.47-0.92-2.03c-0.26-0.57-0.43-0.93-0.52-1.11
				c-0.19-0.36-0.38-0.67-0.56-0.94c-0.18-0.27-0.37-0.5-0.57-0.7c-0.21-0.2-0.44-0.36-0.69-0.49s-0.56-0.24-0.9-0.33
				c-0.1-0.02-0.17-0.07-0.22-0.13c-0.04-0.06-0.06-0.13-0.06-0.2c0.01-0.07,0.04-0.13,0.09-0.18c0.06-0.05,0.14-0.07,0.24-0.07
				h9.59c0.09,0,0.17,0.02,0.23,0.07c0.07,0.05,0.1,0.11,0.12,0.18s0,0.14-0.04,0.2c-0.04,0.07-0.12,0.12-0.23,0.14
				c-0.19,0.05-0.4,0.12-0.62,0.2c-0.22,0.08-0.42,0.21-0.59,0.37c-0.17,0.17-0.28,0.39-0.33,0.67c-0.05,0.28-0.01,0.64,0.13,1.09
				c0.07,0.2,0.17,0.49,0.33,0.88c0.15,0.39,0.33,0.81,0.52,1.27c0.19,0.46,0.39,0.93,0.59,1.43c0.21,0.49,0.4,0.94,0.58,1.34
				c0.18,0.4,0.33,0.75,0.46,1.02c0.13,0.28,0.21,0.44,0.23,0.48c0.09,0.16,0.18,0.16,0.27,0c0.04-0.09,0.12-0.28,0.25-0.58
				c0.13-0.3,0.27-0.66,0.43-1.07c0.16-0.42,0.34-0.87,0.53-1.35c0.19-0.48,0.37-0.95,0.54-1.39c0.17-0.44,0.32-0.85,0.45-1.21
				c0.13-0.37,0.23-0.64,0.28-0.81c0.14-0.45,0.19-0.81,0.14-1.09c-0.04-0.28-0.14-0.5-0.3-0.67c-0.15-0.17-0.34-0.29-0.56-0.37
				c-0.22-0.08-0.42-0.15-0.61-0.2c-0.12-0.02-0.19-0.07-0.23-0.14c-0.04-0.07-0.05-0.14-0.04-0.2c0.01-0.07,0.05-0.13,0.1-0.18
				c0.06-0.05,0.14-0.07,0.24-0.07h5.74c0.09,0,0.16,0.02,0.22,0.07c0.06,0.05,0.09,0.11,0.1,0.18c0.01,0.07,0,0.13-0.05,0.2
				s-0.12,0.11-0.22,0.13c-0.33,0.09-0.63,0.2-0.88,0.33s-0.49,0.3-0.7,0.49s-0.41,0.43-0.59,0.7c-0.18,0.27-0.36,0.58-0.56,0.94
				c-0.08,0.15-0.24,0.49-0.49,1.02c-0.25,0.53-0.55,1.17-0.89,1.91c-0.35,0.75-0.72,1.56-1.13,2.44c-0.41,0.88-0.81,1.75-1.21,2.62
				s-0.77,1.68-1.13,2.45c-0.36,0.77-0.65,1.41-0.88,1.92l-3.3,7.16c-0.42,0.93-0.92,1.68-1.49,2.24c-0.57,0.56-1.28,0.84-2.12,0.84
				c-0.29,0-0.59-0.04-0.88-0.12c-0.29-0.08-0.56-0.21-0.79-0.37c-0.23-0.17-0.42-0.38-0.57-0.65c-0.15-0.27-0.22-0.59-0.22-0.98
				c0-0.35,0.07-0.65,0.2-0.9c0.13-0.25,0.31-0.45,0.54-0.61c0.22-0.16,0.48-0.28,0.76-0.35c0.28-0.07,0.57-0.11,0.86-0.11
				c0.4,0,0.74,0.06,1.04,0.18c0.29,0.12,0.56,0.21,0.81,0.27s0.46,0.05,0.65-0.03C437.57,106.89,437.76,106.65,437.94,106.26z"/>
			<path class="st3" d="M478.12,96.43c0.08-0.2,0.2-0.29,0.36-0.27c0.17,0.02,0.25,0.13,0.25,0.33v4.96c0,0.24-0.13,0.35-0.4,0.35
				h-20.38c-0.13,0-0.22-0.03-0.29-0.08c-0.07-0.06-0.1-0.12-0.1-0.19c-0.01-0.07,0.02-0.13,0.08-0.2c0.06-0.06,0.14-0.11,0.26-0.13
				c0.15-0.02,0.4-0.08,0.73-0.16c0.33-0.08,0.67-0.23,1.01-0.44c0.34-0.21,0.64-0.5,0.89-0.86c0.26-0.36,0.38-0.83,0.38-1.42V80.11
				c0-0.57-0.13-1.04-0.38-1.41c-0.26-0.37-0.55-0.65-0.89-0.86c-0.34-0.21-0.68-0.35-1.01-0.44c-0.33-0.09-0.57-0.14-0.73-0.17
				c-0.12-0.01-0.2-0.05-0.26-0.12c-0.06-0.07-0.08-0.14-0.08-0.2c0.01-0.07,0.04-0.13,0.1-0.19c0.06-0.06,0.16-0.08,0.29-0.08
				h18.71c0.27,0,0.4,0.12,0.4,0.35v3.88c0,0.19-0.08,0.29-0.23,0.31c-0.15,0.02-0.28-0.06-0.38-0.23
				c-0.08-0.16-0.23-0.42-0.46-0.77c-0.23-0.35-0.55-0.71-0.96-1.08c-0.41-0.37-0.92-0.69-1.54-0.97c-0.61-0.28-1.35-0.42-2.21-0.42
				c-0.6,0-1.15,0.05-1.65,0.15c-0.5,0.1-0.92,0.26-1.28,0.47c-0.35,0.22-0.63,0.5-0.83,0.84c-0.2,0.34-0.3,0.75-0.3,1.24v7.86
				v-0.28c0,0.07,0.03,0.14,0.09,0.2c0.06,0.06,0.13,0.08,0.2,0.08h2.46c0.57,0,1.04-0.11,1.41-0.34c0.36-0.22,0.65-0.48,0.86-0.78
				c0.21-0.3,0.36-0.59,0.45-0.89c0.09-0.29,0.15-0.51,0.17-0.66c0.01-0.1,0.05-0.17,0.13-0.21c0.07-0.04,0.14-0.06,0.21-0.06
				c0.07,0.01,0.13,0.04,0.19,0.09c0.06,0.06,0.09,0.13,0.09,0.23V92c0,0.1-0.03,0.18-0.09,0.23c-0.06,0.06-0.12,0.09-0.19,0.09
				c-0.07,0.01-0.14-0.01-0.21-0.06c-0.07-0.04-0.11-0.11-0.13-0.21c-0.03-0.15-0.08-0.37-0.17-0.66c-0.09-0.29-0.24-0.59-0.45-0.89
				c-0.21-0.3-0.5-0.56-0.86-0.78c-0.36-0.22-0.83-0.34-1.41-0.34h-2.46c-0.08,0-0.14,0.03-0.2,0.08c-0.06,0.06-0.09,0.12-0.09,0.2
				v-0.28v8.59c0,0.88,0.4,1.55,1.19,2.01c0.79,0.46,1.92,0.69,3.38,0.69c0.69,0,1.32-0.09,1.89-0.27c0.57-0.18,1.08-0.41,1.54-0.68
				c0.45-0.27,0.85-0.58,1.19-0.92c0.34-0.34,0.63-0.67,0.86-0.98c0.24-0.31,0.42-0.59,0.56-0.85
				C477.98,96.73,478.07,96.55,478.12,96.43z"/>
			<path class="st3" d="M500.61,101.26c0.1,0.03,0.18,0.07,0.22,0.12c0.04,0.06,0.06,0.12,0.05,0.18c-0.01,0.06-0.05,0.12-0.1,0.17
				c-0.06,0.05-0.14,0.07-0.24,0.07h-6.95c-0.14,0-0.25-0.03-0.34-0.09c-0.08-0.06-0.13-0.16-0.13-0.3v-1.64
				c0-0.09-0.03-0.14-0.1-0.17c-0.06-0.02-0.12-0.01-0.17,0.06c-0.12,0.14-0.31,0.35-0.57,0.64c-0.27,0.29-0.64,0.58-1.1,0.88
				c-0.47,0.29-1.04,0.55-1.73,0.76c-0.68,0.22-1.49,0.33-2.41,0.33c-1.02,0-1.92-0.13-2.69-0.39s-1.43-0.62-1.99-1.06
				c-0.56-0.45-1.02-0.96-1.38-1.53c-0.36-0.57-0.65-1.17-0.86-1.81c-0.21-0.63-0.36-1.27-0.44-1.9c-0.08-0.63-0.12-1.23-0.12-1.79
				c0-1.39,0.18-2.66,0.53-3.79c0.35-1.14,0.88-2.11,1.59-2.92c0.71-0.81,1.6-1.43,2.67-1.86c1.07-0.43,2.33-0.65,3.77-0.65
				c0.81,0,1.5,0.05,2.09,0.14c0.59,0.09,1.07,0.2,1.46,0.32c0.38,0.12,0.67,0.23,0.86,0.34c0.19,0.11,0.3,0.16,0.33,0.18
				c0.07,0.05,0.13,0.06,0.18,0.04c0.06-0.02,0.09-0.07,0.09-0.13v-7.55c0-0.16-0.08-0.26-0.23-0.3c-0.03,0-0.12-0.02-0.28-0.06
				c-0.16-0.04-0.34-0.08-0.55-0.13c-0.21-0.05-0.39-0.09-0.57-0.13c-0.17-0.04-0.28-0.06-0.32-0.08c-0.17-0.04-0.25-0.12-0.26-0.25
				c-0.01-0.13,0.09-0.22,0.28-0.27c0.5-0.11,1.04-0.26,1.62-0.46c0.58-0.19,1.17-0.41,1.76-0.65c0.59-0.24,1.16-0.5,1.71-0.78
				c0.55-0.28,1.04-0.56,1.48-0.85c0.12-0.07,0.23-0.1,0.36-0.09c0.12,0.01,0.18,0.1,0.18,0.28v24.75c0,0.5,0.1,0.9,0.31,1.2
				c0.2,0.3,0.44,0.54,0.7,0.71c0.26,0.17,0.52,0.29,0.77,0.35C500.34,101.21,500.51,101.25,500.61,101.26z M493.11,90.71
				c0-0.31-0.02-0.65-0.07-1.03c-0.04-0.37-0.12-0.75-0.23-1.13s-0.26-0.74-0.44-1.09c-0.19-0.35-0.42-0.66-0.7-0.93
				c-0.28-0.27-0.61-0.49-1-0.66c-0.38-0.17-0.82-0.25-1.32-0.25c-0.76,0-1.4,0.19-1.94,0.56c-0.54,0.37-0.97,0.89-1.3,1.54
				c-0.33,0.65-0.58,1.42-0.73,2.31c-0.15,0.89-0.23,1.85-0.23,2.88c0,0.27,0,0.64,0.01,1.11c0.01,0.47,0.04,0.97,0.12,1.5
				c0.07,0.53,0.18,1.08,0.34,1.62c0.15,0.55,0.38,1.04,0.67,1.47c0.29,0.43,0.67,0.79,1.13,1.07c0.46,0.28,1.03,0.42,1.71,0.42
				c0.87,0,1.57-0.16,2.09-0.47c0.52-0.31,0.93-0.69,1.21-1.14c0.28-0.45,0.47-0.92,0.56-1.43c0.09-0.5,0.13-0.95,0.13-1.33V90.71z"
				/>
			<path class="st3" d="M522.32,101.26c0.1,0.03,0.18,0.07,0.22,0.12c0.05,0.06,0.06,0.12,0.05,0.18c-0.01,0.06-0.05,0.12-0.1,0.17
				s-0.14,0.07-0.24,0.07h-6.95c-0.14,0-0.25-0.03-0.34-0.09c-0.08-0.06-0.13-0.16-0.13-0.3v-1.1c-0.54,0.52-1.24,0.98-2.09,1.37
				c-0.86,0.39-1.92,0.59-3.19,0.59c-1.05,0-1.93-0.11-2.64-0.34c-0.71-0.22-1.3-0.52-1.77-0.89c-0.47-0.37-0.82-0.8-1.07-1.29
				s-0.43-0.99-0.54-1.51c-0.11-0.52-0.17-1.04-0.19-1.56c-0.02-0.52-0.03-1-0.03-1.44v-7.29c0-0.5-0.1-0.9-0.31-1.2
				c-0.2-0.3-0.44-0.54-0.7-0.71s-0.52-0.28-0.77-0.35s-0.43-0.1-0.53-0.13c-0.1-0.01-0.18-0.05-0.22-0.11
				c-0.04-0.06-0.06-0.12-0.05-0.19c0.01-0.06,0.05-0.12,0.1-0.17c0.06-0.05,0.14-0.07,0.24-0.07h6.95c0.31,0,0.46,0.16,0.46,0.48
				v10.9c0.01,0.5,0.06,0.99,0.14,1.49c0.08,0.5,0.24,0.95,0.46,1.35c0.22,0.4,0.54,0.73,0.94,0.98s0.94,0.37,1.62,0.37
				c0.72,0,1.28-0.15,1.7-0.44s0.73-0.66,0.95-1.11c0.22-0.45,0.36-0.94,0.42-1.48c0.07-0.54,0.1-1.06,0.1-1.56v-8.07
				c0-0.5-0.1-0.9-0.31-1.2c-0.21-0.3-0.44-0.54-0.7-0.71c-0.26-0.17-0.52-0.28-0.77-0.35c-0.25-0.06-0.43-0.1-0.53-0.13
				c-0.1-0.01-0.18-0.05-0.22-0.11c-0.04-0.06-0.06-0.12-0.05-0.19c0.01-0.06,0.05-0.12,0.1-0.17c0.06-0.05,0.14-0.07,0.24-0.07
				h6.95c0.31,0,0.46,0.16,0.46,0.48v13.36c0,0.5,0.1,0.9,0.31,1.2c0.2,0.3,0.44,0.54,0.7,0.71c0.26,0.17,0.52,0.29,0.77,0.35
				C522.04,101.21,522.21,101.25,522.32,101.26z"/>
			<path class="st3" d="M532.45,85.59c-0.51,0-0.98,0.17-1.41,0.51c-0.43,0.34-0.8,0.82-1.1,1.44c-0.31,0.62-0.55,1.37-0.71,2.25
				s-0.25,1.84-0.25,2.9c0,1.07,0.14,2.02,0.41,2.86c0.27,0.84,0.65,1.55,1.14,2.13c0.49,0.58,1.06,1.03,1.71,1.34
				c0.65,0.31,1.35,0.47,2.11,0.47c0.73,0,1.4-0.1,2.01-0.32c0.61-0.21,1.15-0.45,1.61-0.71c0.47-0.26,0.85-0.51,1.15-0.75
				c0.3-0.24,0.51-0.38,0.62-0.43c0.18-0.07,0.32-0.06,0.43,0.05c0.11,0.1,0.1,0.26-0.01,0.47c-0.08,0.14-0.2,0.34-0.38,0.62
				c-0.18,0.27-0.42,0.57-0.72,0.9c-0.3,0.33-0.66,0.67-1.08,1.02c-0.42,0.35-0.91,0.66-1.47,0.95c-0.56,0.29-1.18,0.52-1.88,0.7
				c-0.7,0.18-1.47,0.27-2.33,0.27c-1.33,0-2.53-0.19-3.59-0.56c-1.06-0.37-1.97-0.92-2.72-1.64c-0.76-0.72-1.33-1.61-1.74-2.66
				s-0.6-2.25-0.6-3.59c0-1.18,0.15-2.23,0.46-3.15c0.31-0.92,0.71-1.72,1.22-2.4c0.51-0.68,1.08-1.26,1.74-1.73
				c0.65-0.47,1.32-0.85,2.01-1.15c0.69-0.29,1.36-0.5,2.03-0.63c0.66-0.13,1.26-0.2,1.8-0.2c0.87,0,1.67,0.08,2.4,0.23
				c0.73,0.16,1.36,0.37,1.88,0.65c0.52,0.28,0.93,0.61,1.23,0.99c0.3,0.38,0.44,0.79,0.44,1.22c0,0.38-0.07,0.71-0.2,0.97
				c-0.13,0.26-0.31,0.48-0.52,0.64c-0.21,0.17-0.45,0.29-0.71,0.36c-0.26,0.07-0.53,0.11-0.79,0.11c-0.38,0-0.75-0.07-1.08-0.2
				c-0.34-0.14-0.62-0.37-0.83-0.69c-0.17-0.24-0.3-0.54-0.4-0.91c-0.1-0.37-0.22-0.73-0.36-1.08c-0.13-0.35-0.31-0.65-0.53-0.9
				C533.19,85.71,532.87,85.59,532.45,85.59z"/>
			<path class="st3" d="M558.26,100.09c0.18-0.04,0.32,0,0.42,0.1c0.1,0.11,0.11,0.25,0.02,0.42c-0.08,0.14-0.2,0.3-0.37,0.48
				c-0.17,0.19-0.4,0.36-0.69,0.52c-0.29,0.16-0.64,0.3-1.06,0.41c-0.42,0.11-0.91,0.17-1.47,0.17c-0.78,0-1.44-0.15-1.97-0.46
				c-0.53-0.3-0.9-0.65-1.1-1.05c-0.05-0.1-0.12-0.14-0.22-0.13s-0.18,0.05-0.24,0.11c-0.04,0.04-0.16,0.14-0.36,0.31
				c-0.2,0.17-0.48,0.35-0.84,0.54c-0.36,0.19-0.8,0.37-1.32,0.52c-0.51,0.15-1.1,0.23-1.77,0.23c-1.14,0-2.09-0.15-2.87-0.47
				c-0.77-0.31-1.4-0.71-1.88-1.2c-0.48-0.49-0.82-1.04-1.04-1.66s-0.32-1.23-0.32-1.84c0-0.98,0.29-1.84,0.85-2.57
				c0.57-0.73,1.31-1.28,2.22-1.64c0.49-0.19,0.99-0.32,1.52-0.4c0.53-0.08,1.06-0.16,1.58-0.25c0.52-0.09,1.04-0.2,1.55-0.33
				c0.5-0.13,0.98-0.35,1.43-0.64c0.47-0.31,0.8-0.71,0.99-1.19c0.19-0.48,0.28-1,0.28-1.55c0-0.4-0.05-0.78-0.16-1.15
				c-0.11-0.37-0.26-0.69-0.46-0.96c-0.2-0.27-0.43-0.49-0.69-0.65c-0.26-0.16-0.55-0.24-0.85-0.24c-0.55,0-0.95,0.14-1.21,0.41
				c-0.26,0.27-0.46,0.6-0.6,0.99c-0.15,0.38-0.29,0.79-0.41,1.2c-0.13,0.42-0.33,0.77-0.61,1.07c-0.23,0.24-0.53,0.41-0.89,0.53
				c-0.36,0.12-0.71,0.18-1.05,0.18c-0.35,0-0.65-0.06-0.92-0.17s-0.5-0.26-0.69-0.46c-0.19-0.19-0.34-0.42-0.43-0.67
				c-0.1-0.25-0.14-0.52-0.14-0.81c0-0.38,0.1-0.77,0.29-1.15c0.19-0.38,0.53-0.73,1.03-1.04c0.49-0.31,1.15-0.56,1.99-0.75
				c0.83-0.19,1.89-0.29,3.17-0.29c1.42,0,2.63,0.14,3.64,0.42c1,0.28,1.82,0.69,2.46,1.22c0.63,0.53,1.09,1.2,1.38,1.98
				c0.29,0.79,0.43,1.69,0.43,2.69c0,1.21-0.04,2.34-0.12,3.39c-0.08,1.06-0.13,1.99-0.16,2.8c-0.03,0.81-0.02,1.48,0.05,2.01
				c0.06,0.53,0.24,0.85,0.54,0.98c0.13,0.06,0.29,0.09,0.48,0.08C557.84,100.15,558.04,100.12,558.26,100.09z M551.6,91.76
				c0-0.07-0.03-0.12-0.1-0.15c-0.06-0.02-0.12-0.01-0.17,0.06c-0.1,0.11-0.2,0.22-0.28,0.32c-0.08,0.1-0.2,0.22-0.34,0.35
				c-0.24,0.25-0.49,0.48-0.75,0.7c-0.26,0.22-0.51,0.44-0.77,0.66c-0.26,0.2-0.51,0.4-0.76,0.6c-0.25,0.2-0.48,0.42-0.7,0.65
				c-0.33,0.37-0.58,0.78-0.74,1.22c-0.16,0.44-0.24,0.91-0.24,1.41c0,0.34,0.05,0.67,0.15,1.02c0.1,0.34,0.26,0.65,0.47,0.91
				c0.21,0.27,0.48,0.48,0.81,0.65c0.33,0.17,0.72,0.25,1.18,0.25c0.46,0,0.83-0.09,1.12-0.28s0.51-0.41,0.67-0.67
				c0.16-0.26,0.27-0.52,0.34-0.79c0.07-0.27,0.1-0.48,0.1-0.62V91.76z"/>
			<path class="st3" d="M571.81,84.56c0.54,0,0.99,0.07,1.36,0.2c0.37,0.13,0.67,0.3,0.9,0.52c0.23,0.22,0.4,0.47,0.5,0.76
				s0.15,0.6,0.15,0.92c0,0.6-0.2,1.06-0.59,1.4c-0.39,0.34-0.91,0.5-1.56,0.5c-0.5,0-0.89-0.09-1.17-0.26s-0.52-0.36-0.72-0.57
				c-0.2-0.21-0.38-0.39-0.55-0.57c-0.17-0.17-0.37-0.26-0.61-0.26c-0.22,0-0.45,0.07-0.7,0.21c-0.25,0.14-0.48,0.41-0.69,0.81
				c-0.21,0.4-0.39,0.94-0.53,1.64c-0.14,0.7-0.21,1.6-0.21,2.7v6.45c0,0.5,0.09,0.89,0.26,1.17c0.17,0.29,0.37,0.5,0.59,0.65
				c0.22,0.15,0.44,0.25,0.66,0.31s0.38,0.09,0.48,0.1c0.1,0.03,0.17,0.07,0.22,0.12c0.04,0.06,0.06,0.12,0.05,0.18
				c-0.01,0.06-0.05,0.12-0.11,0.17c-0.06,0.05-0.14,0.07-0.24,0.07h-1.92h-0.17h-4.84h-0.17h-1.92c-0.1,0-0.18-0.02-0.24-0.07
				c-0.06-0.05-0.09-0.11-0.11-0.17s0-0.12,0.05-0.18c0.04-0.06,0.12-0.1,0.22-0.12c0.1-0.01,0.26-0.05,0.48-0.1
				s0.44-0.16,0.66-0.31c0.22-0.15,0.42-0.37,0.59-0.65c0.17-0.29,0.26-0.68,0.26-1.17V88.51c0-0.16-0.08-0.26-0.23-0.3
				c-0.03,0-0.12-0.02-0.28-0.06c-0.16-0.04-0.34-0.08-0.55-0.13c-0.21-0.05-0.39-0.09-0.57-0.13c-0.17-0.04-0.28-0.06-0.32-0.08
				c-0.17-0.04-0.25-0.12-0.26-0.25c-0.01-0.13,0.09-0.22,0.28-0.27c0.5-0.11,1.04-0.26,1.62-0.46c0.58-0.19,1.17-0.41,1.76-0.65
				c0.59-0.24,1.16-0.5,1.71-0.78c0.55-0.28,1.04-0.56,1.48-0.85c0.12-0.07,0.23-0.1,0.35-0.09c0.12,0.01,0.18,0.1,0.18,0.28v2.67
				c0.45-0.96,1.06-1.67,1.82-2.14C569.98,84.8,570.85,84.56,571.81,84.56z"/>
		</g>
	</g>
</g>
</svg>
